AnekGurmukhi-ExpandedMedium.ufo
<glyph name="l" format="2">
  <advance width="542"/>
  <unicode hex="006C"/>
  <anchor x="271" y="0" name="bottom"/>
  <anchor x="271" y="646" name="center"/>
  <anchor x="271" y="1319" name="top"/>
  <anchor x="552" y="1319" name="topright"/>
  <outline>
    <contour>
      <point x="162" y="0" type="line"/>
      <point x="380" y="0" type="line"/>
      <point x="380" y="1319" type="line"/>
      <point x="162" y="1319" type="line"/>
    </contour>
  </outline>
</glyph>
<glyph name="braceleft" format="2">
  <advance width="844"/>
  <unicode hex="007B"/>
  <outline>
    <contour>
      <point x="768" y="1324" type="line"/>
      <point x="719" y="1339"/>
      <point x="644" y="1352"/>
      <point x="566" y="1352" type="curve" smooth="yes"/>
      <point x="349" y="1352"/>
      <point x="253" y="1266"/>
      <point x="253" y="1059" type="curve" smooth="yes"/>
      <point x="253" y="989"/>
      <point x="268" y="870"/>
      <point x="268" y="794" type="curve" smooth="yes"/>
      <point x="268" y="697"/>
      <point x="229" y="641"/>
      <point x="80" y="636" type="curve"/>
      <point x="80" y="469" type="line"/>
      <point x="229" y="462"/>
      <point x="268" y="405"/>
      <point x="268" y="307" type="curve" smooth="yes"/>
      <point x="268" y="231"/>
      <point x="253" y="112"/>
      <point x="253" y="41" type="curve" smooth="yes"/>
      <point x="253" y="-167"/>
      <point x="349" y="-254"/>
      <point x="566" y="-254" type="curve" smooth="yes"/>
      <point x="644" y="-254"/>
      <point x="719" y="-241"/>
      <point x="768" y="-225" type="curve"/>
      <point x="768" y="-63" type="line"/>
      <point x="731" y="-75"/>
      <point x="683" y="-86"/>
      <point x="625" y="-86" type="curve" smooth="yes"/>
      <point x="505" y="-86"/>
      <point x="457" y="-44"/>
      <point x="457" y="69" type="curve" smooth="yes"/>
      <point x="457" y="134"/>
      <point x="471" y="245"/>
      <point x="471" y="328" type="curve" smooth="yes"/>
      <point x="471" y="446"/>
      <point x="432" y="538"/>
      <point x="257" y="550" type="curve"/>
      <point x="278" y="516" type="line"/>
      <point x="278" y="558" type="line"/>
      <point x="431" y="576"/>
      <point x="471" y="658"/>
      <point x="471" y="774" type="curve" smooth="yes"/>
      <point x="471" y="856"/>
      <point x="457" y="966"/>
      <point x="457" y="1032" type="curve" smooth="yes"/>
      <point x="457" y="1144"/>
      <point x="504" y="1186"/>
      <point x="621" y="1186" type="curve" smooth="yes"/>
      <point x="681" y="1186"/>
      <point x="730" y="1176"/>
      <point x="768" y="1164" type="curve"/>
    </contour>
  </outline>
</glyph>
<glyph name="multiply" format="2">
  <advance width="1339"/>
  <unicode hex="00D7"/>
  <outline>
    <contour>
      <point x="1171" y="239" type="line"/>
      <point x="297" y="1082" type="line"/>
      <point x="173" y="962" type="line"/>
      <point x="1047" y="119" type="line"/>
    </contour>
    <contour>
      <point x="168" y="239" type="line"/>
      <point x="292" y="119" type="line"/>
      <point x="1166" y="962" type="line"/>
      <point x="1042" y="1082" type="line"/>
    </contour>
  </outline>
</glyph>
<glyph name="Danda.gm" format="2">
  <advance width="653"/>
  <unicode hex="0964"/>
  <outline>
    <contour>
      <point x="220" y="0" type="line"/>
      <point x="433" y="0" type="line"/>
      <point x="433" y="1196" type="line"/>
      <point x="220" y="1196" type="line"/>
    </contour>
  </outline>
</glyph>
<glyph name="Doubledanda.gm" format="2">
  <advance width="1214"/>
  <unicode hex="0965"/>
  <outline>
    <contour>
      <point x="781" y="0" type="line"/>
      <point x="994" y="0" type="line"/>
      <point x="994" y="1200" type="line"/>
      <point x="781" y="1200" type="line"/>
    </contour>
    <contour>
      <point x="220" y="0" type="line"/>
      <point x="433" y="0" type="line"/>
      <point x="433" y="1200" type="line"/>
      <point x="220" y="1200" type="line"/>
    </contour>
  </outline>
</glyph>
<glyph name="AddakBindi.gm" format="2">
  <unicode hex="0A01"/>
  <anchor x="514" y="1200" name="_top"/>
  <outline>
    <contour>
      <point x="312" y="1626" type="curve" smooth="yes"/>
      <point x="397" y="1626"/>
      <point x="432" y="1668"/>
      <point x="432" y="1732" type="curve" smooth="yes"/>
      <point x="432" y="1734" type="line" smooth="yes"/>
      <point x="432" y="1797"/>
      <point x="396" y="1840"/>
      <point x="312" y="1840" type="curve" smooth="yes"/>
      <point x="226" y="1840"/>
      <point x="190" y="1797"/>
      <point x="190" y="1734" type="curve" smooth="yes"/>
      <point x="190" y="1731" type="line" smooth="yes"/>
      <point x="190" y="1669"/>
      <point x="226" y="1626"/>
    </contour>
    <component base="Addak.gm"/>
  </outline>
</glyph>
<glyph name="Bindi.gm" format="2">
  <unicode hex="0A02"/>
  <anchor x="600" y="1200" name="_top"/>
  <outline>
    <contour>
      <point x="320" y="1432" type="curve" smooth="yes"/>
      <point x="419" y="1432"/>
      <point x="459" y="1480"/>
      <point x="459" y="1554" type="curve" smooth="yes"/>
      <point x="459" y="1557" type="line" smooth="yes"/>
      <point x="459" y="1630"/>
      <point x="418" y="1679"/>
      <point x="320" y="1679" type="curve" smooth="yes"/>
      <point x="221" y="1679"/>
      <point x="180" y="1629"/>
      <point x="180" y="1557" type="curve" smooth="yes"/>
      <point x="180" y="1553" type="line" smooth="yes"/>
      <point x="180" y="1481"/>
      <point x="221" y="1432"/>
    </contour>
  </outline>
</glyph>
<glyph name="Visarga.gm" format="2">
  <advance width="664"/>
  <unicode hex="0A03"/>
  <outline>
    <contour>
      <point x="332" y="706" type="curve" smooth="yes"/>
      <point x="419" y="706"/>
      <point x="464" y="751"/>
      <point x="464" y="826" type="curve" smooth="yes"/>
      <point x="464" y="830" type="line" smooth="yes"/>
      <point x="464" y="903"/>
      <point x="419" y="949"/>
      <point x="332" y="949" type="curve" smooth="yes"/>
      <point x="246" y="949"/>
      <point x="200" y="903"/>
      <point x="200" y="830" type="curve" smooth="yes"/>
      <point x="200" y="826" type="line" smooth="yes"/>
      <point x="200" y="751"/>
      <point x="246" y="706"/>
    </contour>
    <contour>
      <point x="332" y="130" type="curve" smooth="yes"/>
      <point x="419" y="130"/>
      <point x="464" y="175"/>
      <point x="464" y="250" type="curve" smooth="yes"/>
      <point x="464" y="254" type="line" smooth="yes"/>
      <point x="464" y="327"/>
      <point x="419" y="373"/>
      <point x="332" y="373" type="curve" smooth="yes"/>
      <point x="246" y="373"/>
      <point x="200" y="327"/>
      <point x="200" y="254" type="curve" smooth="yes"/>
      <point x="200" y="250" type="line" smooth="yes"/>
      <point x="200" y="175"/>
      <point x="246" y="130"/>
    </contour>
  </outline>
</glyph>
<glyph name="VowelA.gm" format="2">
  <advance width="2087"/>
  <unicode hex="0A05"/>
  <anchor x="2038" y="1200" name="top"/>
  <outline>
    <contour>
      <point x="928" y="88" type="curve"/>
      <point x="1146" y="88" type="line"/>
      <point x="1171" y="218"/>
      <point x="1186" y="408"/>
      <point x="1186" y="597" type="curve" smooth="yes"/>
      <point x="1186" y="720"/>
      <point x="1175" y="905"/>
      <point x="1156" y="1067" type="curve"/>
      <point x="981" y="1067" type="line"/>
      <point x="319" y="696" type="line"/>
      <point x="319" y="496" type="line"/>
      <point x="1027" y="884" type="line"/>
      <point x="953" y="875" type="line"/>
      <point x="964" y="769"/>
      <point x="969" y="683"/>
      <point x="969" y="602" type="curve" smooth="yes"/>
      <point x="969" y="423"/>
      <point x="954" y="237"/>
    </contour>
    <contour>
      <point x="180" y="268" type="curve"/>
      <point x="398" y="268" type="line"/>
      <point x="423" y="409"/>
      <point x="438" y="590"/>
      <point x="438" y="774" type="curve" smooth="yes"/>
      <point x="438" y="897"/>
      <point x="428" y="1061"/>
      <point x="408" y="1197" type="curve"/>
      <point x="12" y="1197" type="line"/>
      <point x="24" y="1041" type="line"/>
      <point x="206" y="1041" type="line"/>
      <point x="216" y="952"/>
      <point x="221" y="863"/>
      <point x="221" y="782" type="curve" smooth="yes"/>
      <point x="221" y="603"/>
      <point x="206" y="417"/>
    </contour>
    <contour>
      <point x="1068" y="345" type="line"/>
      <point x="1761" y="706" type="line"/>
      <point x="1761" y="908" type="line"/>
      <point x="1068" y="544" type="line"/>
    </contour>
    <component base="_cap.shiro_left"/>
    <component base="_danda" xOffset="1500"/>
  </outline>
</glyph>
<glyph name="VowelEe.gm" format="2">
  <advance width="1600"/>
  <unicode hex="0A0F"/>
  <anchor x="1813" y="1375" name="top1"/>
  <outline>
    <contour>
      <point x="930" y="-31" type="curve" smooth="yes"/>
      <point x="1140" y="-31"/>
      <point x="1319" y="7"/>
      <point x="1444" y="60" type="curve"/>
      <point x="1461" y="241" type="line"/>
      <point x="1317" y="182"/>
      <point x="1134" y="143"/>
      <point x="933" y="143" type="curve" smooth="yes"/>
      <point x="609" y="143"/>
      <point x="373" y="272"/>
      <point x="373" y="449" type="curve" smooth="yes"/>
      <point x="373" y="487" type="line"/>
      <point x="318" y="425" type="line"/>
      <point x="598" y="515"/>
      <point x="989" y="565"/>
      <point x="1399" y="575" type="curve"/>
      <point x="1399" y="1126" type="line"/>
      <point x="1184" y="1126" type="line"/>
      <point x="1184" y="733" type="line"/>
      <point x="1037" y="729"/>
      <point x="890" y="717"/>
      <point x="750" y="698" type="curve"/>
      <point x="721" y="689" type="line"/>
      <point x="509" y="664"/>
      <point x="325" y="624"/>
      <point x="158" y="571" type="curve"/>
      <point x="158" y="490" type="line" smooth="yes"/>
      <point x="158" y="195"/>
      <point x="432" y="-31"/>
    </contour>
    <contour>
      <point x="662" y="672" type="line"/>
      <point x="783" y="676" type="line"/>
      <point x="912" y="716" type="line"/>
      <point x="611" y="716"/>
      <point x="418" y="848"/>
      <point x="418" y="1013" type="curve" smooth="yes"/>
      <point x="418" y="1130" type="line"/>
      <point x="173" y="1130" type="line"/>
      <point x="173" y="1025" type="line" smooth="yes"/>
      <point x="173" y="810"/>
      <point x="360" y="696"/>
      <point x="662" y="686" type="curve"/>
    </contour>
    <contour>
      <point x="40" y="1041" type="line"/>
      <point x="298" y="1041" type="line"/>
      <point x="308" y="1048" type="line"/>
      <point x="1295" y="1048" type="line"/>
      <point x="1306" y="1041" type="line"/>
      <point x="1586" y="1041" type="line"/>
      <point x="1586" y="1197" type="line"/>
      <point x="40" y="1197" type="line"/>
    </contour>
    <contour>
      <point x="1278" y="1174" type="line"/>
      <point x="1388" y="1174" type="line"/>
      <point x="1339" y="1577"/>
      <point x="1115" y="1735"/>
      <point x="636" y="1735" type="curve"/>
      <point x="545" y="1735"/>
      <point x="469" y="1730"/>
      <point x="383" y="1720" type="curve"/>
      <point x="362" y="1539" type="line"/>
      <point x="449" y="1549"/>
      <point x="562" y="1554"/>
      <point x="617" y="1554" type="curve"/>
      <point x="1090" y="1554"/>
      <point x="1232" y="1406"/>
      <point x="1276" y="1184" type="curve" smooth="yes"/>
    </contour>
    <component base="_cap.shiro_left"/>
    <component base="_cap.shiro_right" xOffset="1349"/>
  </outline>
</glyph>
<glyph name="VowelOo.gm" format="2">
  <advance width="1727"/>
  <unicode hex="0A13"/>
  <outline>
    <contour>
      <point x="948" y="-32" type="curve" smooth="yes"/>
      <point x="1356" y="-32"/>
      <point x="1532" y="107"/>
      <point x="1532" y="333" type="curve" smooth="yes"/>
      <point x="1532" y="338" type="line" smooth="yes"/>
      <point x="1532" y="521"/>
      <point x="1375" y="630"/>
      <point x="1113" y="630" type="curve"/>
      <point x="1187" y="576" type="line"/>
      <point x="1187" y="631" type="line"/>
      <point x="1427" y="634"/>
      <point x="1596" y="782"/>
      <point x="1596" y="1054" type="curve" smooth="yes"/>
      <point x="1596" y="1105" type="line"/>
      <point x="1383" y="1105" type="line"/>
      <point x="1383" y="1049" type="line" smooth="yes"/>
      <point x="1383" y="830"/>
      <point x="1250" y="716"/>
      <point x="995" y="716" type="curve" smooth="yes"/>
      <point x="287" y="716" type="line"/>
      <point x="287" y="548" type="line"/>
      <point x="993" y="548" type="line" smooth="yes"/>
      <point x="1206" y="548"/>
      <point x="1311" y="460"/>
      <point x="1311" y="350" type="curve" smooth="yes"/>
      <point x="1311" y="349" type="line" smooth="yes"/>
      <point x="1311" y="229"/>
      <point x="1215" y="140"/>
      <point x="939" y="140" type="curve" smooth="yes"/>
      <point x="585" y="140"/>
      <point x="384" y="296"/>
      <point x="384" y="764" type="curve" smooth="yes"/>
      <point x="384" y="939" type="line" smooth="yes"/>
      <point x="384" y="1375"/>
      <point x="594" y="1533"/>
      <point x="1005" y="1533" type="curve" smooth="yes"/>
      <point x="1138" y="1533"/>
      <point x="1267" y="1511"/>
      <point x="1383" y="1476" type="curve"/>
      <point x="1369" y="1638" type="line"/>
      <point x="1257" y="1679"/>
      <point x="1121" y="1702"/>
      <point x="987" y="1702" type="curve" smooth="yes"/>
      <point x="455" y="1702"/>
      <point x="174" y="1474"/>
      <point x="174" y="939" type="curve" smooth="yes"/>
      <point x="174" y="764" type="line" smooth="yes"/>
      <point x="174" y="200"/>
      <point x="451" y="-32"/>
    </contour>
    <contour>
      <point x="20" y="1041" type="line"/>
      <point x="295" y="1041" type="line"/>
      <point x="298" y="1048" type="line"/>
      <point x="1526" y="1048" type="line"/>
      <point x="1530" y="1041" type="line"/>
      <point x="1725" y="1041" type="line"/>
      <point x="1725" y="1197" type="line"/>
      <point x="20" y="1197" type="line"/>
    </contour>
    <component base="_cap.shiro_left"/>
    <component base="_cap.shiro_right" xOffset="1481"/>
  </outline>
</glyph>
<glyph name="Ka.gm" format="2">
  <advance width="1704"/>
  <unicode hex="0A15"/>
  <anchor x="1846" y="100" name="bottom"/>
  <anchor x="1468" y="147" name="bottom1"/>
  <anchor x="1733" y="1200" name="top"/>
  <outline>
    <contour>
      <point x="22" y="1040" type="line"/>
      <point x="1707" y="1040" type="line"/>
      <point x="1707" y="1197" type="line"/>
      <point x="22" y="1197" type="line"/>
    </contour>
    <contour>
      <point x="1332" y="0" type="line"/>
      <point x="1555" y="0" type="line"/>
      <point x="1530" y="114" type="line" smooth="yes"/>
      <point x="1487" y="310"/>
      <point x="1395" y="463"/>
      <point x="1259" y="584" type="curve"/>
      <point x="1258" y="589" type="line"/>
      <point x="1106" y="766"/>
      <point x="889" y="865"/>
      <point x="610" y="865" type="curve" smooth="yes"/>
      <point x="286" y="865"/>
      <point x="116" y="738"/>
      <point x="116" y="519" type="curve" smooth="yes"/>
      <point x="116" y="516" type="line" smooth="yes"/>
      <point x="116" y="295"/>
      <point x="298" y="170"/>
      <point x="624" y="170" type="curve" smooth="yes"/>
      <point x="919" y="170"/>
      <point x="1145" y="271"/>
      <point x="1271" y="454" type="curve"/>
      <point x="1273" y="463" type="line"/>
      <point x="1401" y="595"/>
      <point x="1487" y="781"/>
      <point x="1526" y="980" type="curve" smooth="yes"/>
      <point x="1551" y="1109" type="line"/>
      <point x="1325" y="1106" type="line"/>
      <point x="1303" y="986" type="line" smooth="yes"/>
      <point x="1276" y="839"/>
      <point x="1216" y="681"/>
      <point x="1146" y="591" type="curve"/>
      <point x="1143" y="578" type="line"/>
      <point x="1052" y="423"/>
      <point x="853" y="342"/>
      <point x="648" y="342" type="curve" smooth="yes"/>
      <point x="435" y="342"/>
      <point x="333" y="404"/>
      <point x="333" y="515" type="curve" smooth="yes"/>
      <point x="333" y="517" type="line" smooth="yes"/>
      <point x="333" y="626"/>
      <point x="433" y="693"/>
      <point x="648" y="693" type="curve" smooth="yes"/>
      <point x="865" y="693"/>
      <point x="1039" y="599"/>
      <point x="1141" y="463" type="curve"/>
      <point x="1150" y="452" type="line"/>
      <point x="1223" y="364"/>
      <point x="1276" y="248"/>
      <point x="1307" y="110" type="curve" smooth="yes"/>
    </contour>
    <component base="_cap.shiro_left"/>
    <component base="_cap.shiro_right" xOffset="1453"/>
  </outline>
</glyph>
<glyph name="Kha.gm" format="2">
  <advance width="1708"/>
  <unicode hex="0A16"/>
  <anchor x="1808" y="100" name="bottom"/>
  <anchor x="1661" y="100" name="bottom1"/>
  <anchor x="1691" y="1200" name="top"/>
  <outline>
    <contour>
      <point x="847" y="169" type="curve" smooth="yes"/>
      <point x="997" y="169"/>
      <point x="1136" y="192"/>
      <point x="1242" y="235" type="curve"/>
      <point x="1291" y="386" type="line"/>
      <point x="1310" y="386" type="line"/>
      <point x="1316" y="448" type="line"/>
      <point x="1195" y="378"/>
      <point x="1040" y="341"/>
      <point x="864" y="341" type="curve" smooth="yes"/>
      <point x="663" y="341"/>
      <point x="477" y="393"/>
      <point x="354" y="494" type="curve"/>
      <point x="378" y="442" type="line"/>
      <point x="428" y="569"/>
      <point x="461" y="708"/>
      <point x="461" y="932" type="curve" smooth="yes"/>
      <point x="461" y="1010"/>
      <point x="457" y="1099"/>
      <point x="448" y="1197" type="curve"/>
      <point x="36" y="1197" type="line"/>
      <point x="36" y="1041" type="line"/>
      <point x="237" y="1041" type="line"/>
      <point x="241" y="990"/>
      <point x="243" y="939"/>
      <point x="243" y="890" type="curve" smooth="yes"/>
      <point x="243" y="684"/>
      <point x="206" y="536"/>
      <point x="144" y="407" type="curve"/>
      <point x="295" y="264"/>
      <point x="528" y="169"/>
    </contour>
    <contour>
      <point x="332" y="689" type="line"/>
      <point x="1394" y="689" type="line"/>
      <point x="1394" y="855" type="line"/>
      <point x="332" y="855" type="line"/>
    </contour>
    <component base="_danda" xOffset="1121"/>
    <component base="_cap.shiro_left"/>
  </outline>
</glyph>
<glyph name="Ga.gm" format="2">
  <advance width="2111"/>
  <unicode hex="0A17"/>
  <anchor x="2211" y="100" name="bottom"/>
  <anchor x="1940" y="95" name="bottom1"/>
  <anchor x="2094" y="1200" name="top"/>
  <outline>
    <contour>
      <point x="768" y="-32" type="curve" smooth="yes"/>
      <point x="1093" y="-32"/>
      <point x="1289" y="115"/>
      <point x="1289" y="375" type="curve" smooth="yes"/>
      <point x="1289" y="1064" type="line"/>
      <point x="1079" y="1064" type="line"/>
      <point x="1079" y="669" type="line"/>
      <point x="1079" y="656" type="line"/>
      <point x="1079" y="382" type="line" smooth="yes"/>
      <point x="1079" y="230"/>
      <point x="965" y="140"/>
      <point x="769" y="140" type="curve" smooth="yes"/>
      <point x="503" y="140"/>
      <point x="356" y="264"/>
      <point x="356" y="409" type="curve" smooth="yes"/>
      <point x="356" y="414" type="line" smooth="yes"/>
      <point x="356" y="513"/>
      <point x="420" y="581"/>
      <point x="576" y="581" type="curve" smooth="yes"/>
      <point x="1185" y="581" type="line"/>
      <point x="1185" y="751" type="line"/>
      <point x="541" y="751" type="line" smooth="yes"/>
      <point x="263" y="751"/>
      <point x="135" y="623"/>
      <point x="135" y="425" type="curve" smooth="yes"/>
      <point x="135" y="414" type="line" smooth="yes"/>
      <point x="135" y="176"/>
      <point x="352" y="-32"/>
    </contour>
    <contour>
      <point x="28" y="1041" type="line"/>
      <point x="1862" y="1041" type="line"/>
      <point x="1862" y="1197" type="line"/>
      <point x="28" y="1197" type="line"/>
    </contour>
    <component base="_danda" xOffset="1524"/>
    <component base="_cap.shiro_left"/>
  </outline>
</glyph>
<glyph name="Gha.gm" format="2">
  <advance width="2012"/>
  <unicode hex="0A18"/>
  <anchor x="2112" y="100" name="bottom"/>
  <anchor x="1819" y="100" name="bottom1"/>
  <anchor x="1995" y="1200" name="top"/>
  <outline>
    <contour>
      <point x="645" y="204" type="curve" smooth="yes"/>
      <point x="771" y="204"/>
      <point x="870" y="235"/>
      <point x="921" y="268" type="curve"/>
      <point x="955" y="403" type="line"/>
      <point x="1037" y="406" type="line"/>
      <point x="976" y="526" type="line"/>
      <point x="934" y="439"/>
      <point x="837" y="376"/>
      <point x="671" y="376" type="curve" smooth="yes"/>
      <point x="526" y="376"/>
      <point x="409" y="432"/>
      <point x="359" y="512" type="curve"/>
      <point x="369" y="469" type="line"/>
      <point x="426" y="592"/>
      <point x="454" y="720"/>
      <point x="454" y="932" type="curve" smooth="yes"/>
      <point x="454" y="1010"/>
      <point x="450" y="1099"/>
      <point x="441" y="1197" type="curve"/>
      <point x="35" y="1197" type="line"/>
      <point x="35" y="1041" type="line"/>
      <point x="230" y="1041" type="line"/>
      <point x="235" y="990"/>
      <point x="236" y="939"/>
      <point x="236" y="890" type="curve" smooth="yes"/>
      <point x="236" y="691"/>
      <point x="206" y="578"/>
      <point x="140" y="444" type="curve"/>
      <point x="249" y="282"/>
      <point x="424" y="204"/>
    </contour>
    <contour>
      <point x="1350" y="202" type="curve" smooth="yes"/>
      <point x="1432" y="202"/>
      <point x="1513" y="221"/>
      <point x="1553" y="245" type="curve"/>
      <point x="1597" y="372" type="line"/>
      <point x="1628" y="372" type="line"/>
      <point x="1617" y="453" type="line"/>
      <point x="1583" y="415"/>
      <point x="1502" y="374"/>
      <point x="1385" y="374" type="curve" smooth="yes"/>
      <point x="1249" y="374"/>
      <point x="1167" y="422"/>
      <point x="1128" y="492" type="curve"/>
      <point x="936" y="477" type="line"/>
      <point x="959" y="317"/>
      <point x="1095" y="202"/>
    </contour>
    <contour>
      <point x="1139" y="1183" type="line"/>
      <point x="924" y="1150" type="line"/>
      <point x="924" y="833" type="line" smooth="yes"/>
      <point x="924" y="725"/>
      <point x="925" y="569"/>
      <point x="926" y="444" type="curve"/>
      <point x="1138" y="450" type="line"/>
      <point x="1138" y="607"/>
      <point x="1139" y="704"/>
      <point x="1139" y="831" type="curve" smooth="yes"/>
    </contour>
    <component base="_danda" xOffset="1425"/>
    <component base="_cap.shiro_left"/>
  </outline>
</glyph>
<glyph name="Nga.gm" format="2">
  <advance width="1685"/>
  <unicode hex="0A19"/>
  <anchor x="1543" y="75" name="bottom"/>
  <anchor x="1643" y="50" name="bottom1"/>
  <anchor x="1658" y="1200" name="top"/>
  <outline>
    <contour>
      <point x="32" y="1041" type="line"/>
      <point x="373" y="1041" type="line"/>
      <point x="380" y="1048" type="line"/>
      <point x="1642" y="1040" type="line"/>
      <point x="1642" y="1197" type="line"/>
      <point x="32" y="1197" type="line"/>
    </contour>
    <contour>
      <point x="703" y="-25" type="curve" smooth="yes"/>
      <point x="990" y="-25"/>
      <point x="1178" y="49"/>
      <point x="1308" y="128" type="curve"/>
      <point x="1310" y="133" type="line"/>
      <point x="1453" y="205"/>
      <point x="1544" y="342"/>
      <point x="1544" y="484" type="curve" smooth="yes"/>
      <point x="1544" y="498" type="line" smooth="yes"/>
      <point x="1544" y="729"/>
      <point x="1378" y="857"/>
      <point x="1033" y="857" type="curve" smooth="yes"/>
      <point x="431" y="857" type="line"/>
      <point x="431" y="1122" type="line"/>
      <point x="221" y="1122" type="line"/>
      <point x="221" y="691" type="line"/>
      <point x="995" y="691" type="line" smooth="yes"/>
      <point x="1227" y="691"/>
      <point x="1331" y="617"/>
      <point x="1331" y="485" type="curve" smooth="yes"/>
      <point x="1331" y="474" type="line" smooth="yes"/>
      <point x="1331" y="383"/>
      <point x="1276" y="304"/>
      <point x="1185" y="259" type="curve"/>
      <point x="1195" y="259" type="line"/>
      <point x="1112" y="204"/>
      <point x="965" y="147"/>
      <point x="704" y="147" type="curve" smooth="yes"/>
      <point x="473" y="147"/>
      <point x="383" y="189"/>
      <point x="383" y="251" type="curve" smooth="yes"/>
      <point x="383" y="253" type="line" smooth="yes"/>
      <point x="383" y="313"/>
      <point x="457" y="354"/>
      <point x="633" y="354" type="curve" smooth="yes"/>
      <point x="864" y="354"/>
      <point x="1049" y="293"/>
      <point x="1188" y="164" type="curve"/>
      <point x="1310" y="246" type="line"/>
      <point x="1166" y="423"/>
      <point x="938" y="526"/>
      <point x="607" y="526" type="curve" smooth="yes"/>
      <point x="272" y="526"/>
      <point x="166" y="403"/>
      <point x="166" y="257" type="curve" smooth="yes"/>
      <point x="166" y="252" type="line" smooth="yes"/>
      <point x="166" y="83"/>
      <point x="335" y="-25"/>
    </contour>
    <contour>
      <point x="1362" y="-112" type="line"/>
      <point x="1590" y="-112" type="line"/>
      <point x="1320" y="244" type="line"/>
      <point x="1188" y="148" type="line"/>
    </contour>
    <component base="_cap.shiro_left"/>
    <component base="_cap.shiro_right" xOffset="1444"/>
  </outline>
</glyph>
<glyph name="Ca.gm" format="2">
  <advance width="1746"/>
  <unicode hex="0A1A"/>
  <anchor x="1639" y="100" name="bottom"/>
  <anchor x="1719" y="100" name="bottom1"/>
  <anchor x="1735" y="1200" name="top"/>
  <outline>
    <contour>
      <point x="930" y="-32" type="curve" smooth="yes"/>
      <point x="1343" y="-32"/>
      <point x="1551" y="140"/>
      <point x="1551" y="467" type="curve" smooth="yes"/>
      <point x="1551" y="1134" type="line"/>
      <point x="1340" y="1134" type="line"/>
      <point x="1340" y="647" type="line"/>
      <point x="1346" y="640" type="line"/>
      <point x="1346" y="468" type="line" smooth="yes"/>
      <point x="1346" y="251"/>
      <point x="1203" y="140"/>
      <point x="928" y="140" type="curve" smooth="yes"/>
      <point x="580" y="140"/>
      <point x="375" y="331"/>
      <point x="375" y="658" type="curve" smooth="yes"/>
      <point x="375" y="915" type="line"/>
      <point x="164" y="880" type="line"/>
      <point x="164" y="658" type="line" smooth="yes"/>
      <point x="164" y="225"/>
      <point x="450" y="-32"/>
    </contour>
    <contour>
      <point x="280" y="559" type="line"/>
      <point x="1455" y="559" type="line"/>
      <point x="1455" y="729" type="line"/>
      <point x="280" y="729" type="line"/>
    </contour>
    <contour>
      <point x="30" y="1041" type="line"/>
      <point x="1716" y="1041" type="line"/>
      <point x="1716" y="1197" type="line"/>
      <point x="30" y="1197" type="line"/>
    </contour>
    <component base="_cap.shiro_left"/>
    <component base="_cap.shiro_right" xOffset="1495"/>
  </outline>
</glyph>
<glyph name="Cha.gm" format="2">
  <advance width="1741"/>
  <unicode hex="0A1B"/>
  <anchor x="1590" y="100" name="bottom"/>
  <anchor x="1680" y="100" name="bottom1"/>
  <anchor x="1678" y="1200" name="top"/>
  <outline>
    <contour>
      <point x="889" y="-25" type="line"/>
      <point x="1177" y="-25" type="line" smooth="yes"/>
      <point x="1478" y="-25"/>
      <point x="1604" y="71"/>
      <point x="1604" y="248" type="curve" smooth="yes"/>
      <point x="1604" y="250" type="line" smooth="yes"/>
      <point x="1604" y="457"/>
      <point x="1447" y="530"/>
      <point x="1236" y="530" type="curve" smooth="yes"/>
      <point x="569" y="530" type="line" smooth="yes"/>
      <point x="476" y="530"/>
      <point x="385" y="553"/>
      <point x="385" y="628" type="curve" smooth="yes"/>
      <point x="385" y="689"/>
      <point x="445" y="723"/>
      <point x="548" y="723" type="curve" smooth="yes"/>
      <point x="1494" y="723" type="line"/>
      <point x="1494" y="1127" type="line"/>
      <point x="1282" y="1127" type="line"/>
      <point x="1282" y="882" type="line"/>
      <point x="464" y="882" type="line" smooth="yes"/>
      <point x="283" y="882"/>
      <point x="169" y="808"/>
      <point x="169" y="665" type="curve" smooth="yes"/>
      <point x="169" y="526"/>
      <point x="289" y="468"/>
      <point x="454" y="462" type="curve"/>
      <point x="454" y="449" type="line"/>
      <point x="618" y="369" type="line"/>
      <point x="1210" y="369" type="line" smooth="yes"/>
      <point x="1348" y="369"/>
      <point x="1403" y="322"/>
      <point x="1403" y="247" type="curve" smooth="yes"/>
      <point x="1403" y="245" type="line" smooth="yes"/>
      <point x="1403" y="177"/>
      <point x="1330" y="134"/>
      <point x="1210" y="134" type="curve" smooth="yes"/>
      <point x="889" y="131" type="line"/>
    </contour>
    <contour>
      <point x="642" y="-25" type="curve"/>
      <point x="897" y="-25" type="line"/>
      <point x="897" y="131" type="line"/>
      <point x="570" y="134" type="line" smooth="yes"/>
      <point x="443" y="134"/>
      <point x="364" y="171"/>
      <point x="364" y="245" type="curve" smooth="yes"/>
      <point x="364" y="247" type="line" smooth="yes"/>
      <point x="364" y="323"/>
      <point x="436" y="369"/>
      <point x="560" y="369" type="curve" smooth="yes"/>
      <point x="717" y="369" type="line"/>
      <point x="717" y="460" type="line"/>
      <point x="447" y="460" type="line"/>
      <point x="297" y="460"/>
      <point x="157" y="386"/>
      <point x="157" y="231" type="curve" smooth="yes"/>
      <point x="157" y="229" type="line" smooth="yes"/>
      <point x="157" y="56"/>
      <point x="301" y="-25"/>
    </contour>
    <contour>
      <point x="805" y="40" type="line"/>
      <point x="975" y="40" type="line"/>
      <point x="975" y="454" type="line"/>
      <point x="805" y="454" type="line"/>
    </contour>
    <contour>
      <point x="53" y="1041" type="line"/>
      <point x="1378" y="1049" type="line"/>
      <point x="1382" y="1041" type="line"/>
      <point x="1717" y="1041" type="line"/>
      <point x="1717" y="1197" type="line"/>
      <point x="48" y="1197" type="line"/>
    </contour>
    <component base="_cap.shiro_left"/>
    <component base="_cap.shiro_right" xOffset="1490"/>
  </outline>
</glyph>
<glyph name="Ja.gm" format="2">
  <advance width="1664"/>
  <unicode hex="0A1C"/>
  <anchor x="1764" y="100" name="bottom"/>
  <anchor x="1630" y="100" name="bottom1"/>
  <anchor x="1647" y="1200" name="top"/>
  <outline>
    <contour>
      <point x="174" y="0" type="curve"/>
      <point x="392" y="0" type="line"/>
      <point x="418" y="153"/>
      <point x="433" y="338"/>
      <point x="433" y="512" type="curve" smooth="yes"/>
      <point x="433" y="648"/>
      <point x="423" y="792"/>
      <point x="407" y="899" type="curve"/>
      <point x="192" y="864" type="line"/>
      <point x="206" y="771"/>
      <point x="215" y="636"/>
      <point x="215" y="521" type="curve" smooth="yes"/>
      <point x="215" y="347"/>
      <point x="201" y="160"/>
    </contour>
    <contour>
      <point x="327" y="495" type="line"/>
      <point x="1364" y="495" type="line"/>
      <point x="1364" y="673" type="line"/>
      <point x="327" y="673" type="line"/>
    </contour>
    <contour>
      <point x="28" y="1041" type="line"/>
      <point x="1371" y="1041" type="line"/>
      <point x="1370" y="1197" type="line"/>
      <point x="28" y="1197" type="line"/>
    </contour>
    <component base="_danda" xOffset="1077"/>
    <component base="_cap.shiro_left"/>
  </outline>
</glyph>
<glyph name="Jha.gm" format="2">
  <advance width="1653"/>
  <unicode hex="0A1D"/>
  <anchor x="1312" y="-30" name="bottom"/>
  <anchor x="1625" y="10" name="bottom1"/>
  <anchor x="1696" y="1200" name="top"/>
  <outline>
    <contour>
      <point x="856" y="23" type="curve" smooth="yes"/>
      <point x="1305" y="23"/>
      <point x="1508" y="125"/>
      <point x="1508" y="364" type="curve" smooth="yes"/>
      <point x="1508" y="376" type="line" smooth="yes"/>
      <point x="1508" y="562"/>
      <point x="1375" y="674"/>
      <point x="1110" y="693" type="curve"/>
      <point x="1110" y="737" type="line"/>
      <point x="826" y="736" type="line"/>
      <point x="503" y="736" type="line"/>
      <point x="503" y="714" type="line"/>
      <point x="415" y="712"/>
      <point x="298" y="698"/>
      <point x="187" y="676" type="curve"/>
      <point x="167" y="513" type="line"/>
      <point x="413" y="545"/>
      <point x="552" y="564"/>
      <point x="829" y="564" type="curve" smooth="yes"/>
      <point x="1198" y="564"/>
      <point x="1292" y="488"/>
      <point x="1292" y="379" type="curve" smooth="yes"/>
      <point x="1292" y="377" type="line" smooth="yes"/>
      <point x="1292" y="251"/>
      <point x="1177" y="197"/>
      <point x="835" y="197" type="curve" smooth="yes"/>
      <point x="587" y="197"/>
      <point x="340" y="239"/>
      <point x="181" y="277" type="curve"/>
      <point x="198" y="109" type="line"/>
      <point x="432" y="53"/>
      <point x="622" y="23"/>
    </contour>
    <contour>
      <point x="739" y="-218" type="line"/>
      <point x="1042" y="-218" type="line"/>
      <point x="899" y="-113"/>
      <point x="744" y="-20"/>
      <point x="622" y="41" type="curve"/>
      <point x="632" y="99" type="line"/>
      <point x="317" y="109" type="line"/>
    </contour>
    <contour>
      <point x="631" y="712" type="curve"/>
      <point x="824" y="736" type="line"/>
      <point x="579" y="736"/>
      <point x="392" y="865"/>
      <point x="392" y="1053" type="curve" smooth="yes"/>
      <point x="392" y="1097" type="line"/>
      <point x="146" y="1097" type="line"/>
      <point x="146" y="1060" type="line" smooth="yes"/>
      <point x="146" y="869"/>
      <point x="314" y="713"/>
    </contour>
    <contour>
      <point x="9" y="1041" type="line"/>
      <point x="276" y="1041" type="line"/>
      <point x="283" y="1050" type="line"/>
      <point x="1389" y="1050" type="line"/>
      <point x="1402" y="1041" type="line"/>
      <point x="1628" y="1041" type="line"/>
      <point x="1628" y="1197" type="line"/>
      <point x="9" y="1197" type="line"/>
    </contour>
    <contour>
      <point x="1512" y="1063" type="curve" smooth="yes"/>
      <point x="1512" y="1097" type="line"/>
      <point x="1266" y="1097" type="line"/>
      <point x="1266" y="1053" type="line" smooth="yes"/>
      <point x="1266" y="865"/>
      <point x="1079" y="736"/>
      <point x="828" y="736" type="curve"/>
      <point x="1037" y="697" type="line"/>
      <point x="1381" y="697"/>
      <point x="1512" y="876"/>
    </contour>
    <component base="_cap.shiro_left"/>
    <component base="_cap.shiro_right" xOffset="1402"/>
  </outline>
</glyph>
<glyph name="Nya.gm" format="2">
  <advance width="1670"/>
  <unicode hex="0A1E"/>
  <anchor x="1586" y="85" name="bottom"/>
  <anchor x="1740" y="90" name="bottom1"/>
  <anchor x="1662" y="1200" name="top"/>
  <outline>
    <contour>
      <point x="483" y="338" type="curve"/>
      <point x="1423" y="338" type="line"/>
      <point x="1423" y="502" type="line"/>
      <point x="505" y="502" type="line" smooth="yes"/>
      <point x="403" y="502"/>
      <point x="343" y="530"/>
      <point x="343" y="594" type="curve" smooth="yes"/>
      <point x="343" y="659"/>
      <point x="402" y="688"/>
      <point x="504" y="688" type="curve" smooth="yes"/>
      <point x="1478" y="688" type="line"/>
      <point x="1478" y="1128" type="line"/>
      <point x="1269" y="1128" type="line"/>
      <point x="1269" y="852" type="line"/>
      <point x="482" y="852" type="line" smooth="yes"/>
      <point x="255" y="852"/>
      <point x="123" y="765"/>
      <point x="123" y="594" type="curve" smooth="yes"/>
      <point x="123" y="422"/>
      <point x="256" y="338"/>
    </contour>
    <contour>
      <point x="1219" y="-35" type="curve" smooth="yes"/>
      <point x="1310" y="-35"/>
      <point x="1413" y="-23"/>
      <point x="1494" y="2" type="curve"/>
      <point x="1511" y="172" type="line"/>
      <point x="1423" y="149"/>
      <point x="1321" y="137"/>
      <point x="1241" y="137" type="curve" smooth="yes"/>
      <point x="987" y="137"/>
      <point x="793" y="201"/>
      <point x="745" y="398" type="curve"/>
      <point x="518" y="398" type="line"/>
      <point x="610" y="73"/>
      <point x="863" y="-35"/>
    </contour>
    <contour>
      <point x="462" y="753" type="curve"/>
      <point x="668" y="798" type="line"/>
      <point x="571" y="872"/>
      <point x="473" y="989"/>
      <point x="419" y="1141" type="curve"/>
      <point x="185" y="1141" type="line"/>
      <point x="232" y="994"/>
      <point x="340" y="849"/>
    </contour>
    <contour>
      <point x="32" y="1041" type="line"/>
      <point x="337" y="1041" type="line"/>
      <point x="352" y="1050" type="line"/>
      <point x="1374" y="1050" type="line"/>
      <point x="1388" y="1041" type="line"/>
      <point x="1624" y="1041" type="line"/>
      <point x="1624" y="1197" type="line"/>
      <point x="32" y="1197" type="line"/>
    </contour>
    <component base="_cap.shiro_left"/>
    <component base="_cap.shiro_right" xOffset="1419"/>
  </outline>
</glyph>
<glyph name="Tta.gm" format="2">
  <advance width="1583"/>
  <unicode hex="0A1F"/>
  <anchor x="1549" y="100" name="bottom"/>
  <anchor x="1660" y="100" name="bottom1"/>
  <anchor x="1562" y="1200" name="top"/>
  <outline>
    <contour>
      <point x="919" y="-23" type="curve" smooth="yes"/>
      <point x="1136" y="-23"/>
      <point x="1299" y="14"/>
      <point x="1422" y="67" type="curve"/>
      <point x="1438" y="245" type="line"/>
      <point x="1294" y="184"/>
      <point x="1132" y="151"/>
      <point x="938" y="151" type="curve" smooth="yes"/>
      <point x="588" y="151"/>
      <point x="362" y="276"/>
      <point x="362" y="468" type="curve" smooth="yes"/>
      <point x="362" y="528" type="line"/>
      <point x="309" y="471" type="line"/>
      <point x="545" y="559"/>
      <point x="942" y="610"/>
      <point x="1378" y="619" type="curve"/>
      <point x="1378" y="1116" type="line"/>
      <point x="1165" y="1116" type="line"/>
      <point x="1165" y="746" type="line"/>
      <point x="1220" y="782" type="line"/>
      <point x="844" y="780"/>
      <point x="445" y="722"/>
      <point x="147" y="615" type="curve"/>
      <point x="147" y="525" type="line" smooth="yes"/>
      <point x="147" y="197"/>
      <point x="416" y="-23"/>
    </contour>
    <contour>
      <point x="13" y="1041" type="line"/>
      <point x="1521" y="1041" type="line"/>
      <point x="1521" y="1197" type="line"/>
      <point x="13" y="1197" type="line"/>
    </contour>
    <component base="_cap.shiro_left"/>
    <component base="_cap.shiro_right" xOffset="1342"/>
  </outline>
</glyph>
<glyph name="Ttha.gm" format="2">
  <advance width="1685"/>
  <unicode hex="0A20"/>
  <anchor x="1542" y="100" name="bottom"/>
  <anchor x="1633" y="100" name="bottom1"/>
  <anchor x="1132" y="1200" name="top"/>
  <outline>
    <contour>
      <point x="844" y="-41" type="curve" smooth="yes"/>
      <point x="1307" y="-41"/>
      <point x="1552" y="117"/>
      <point x="1552" y="387" type="curve" smooth="yes"/>
      <point x="1552" y="395" type="line" smooth="yes"/>
      <point x="1552" y="641"/>
      <point x="1351" y="792"/>
      <point x="845" y="841" type="curve"/>
      <point x="352" y="796"/>
      <point x="136" y="641"/>
      <point x="136" y="395" type="curve" smooth="yes"/>
      <point x="136" y="387" type="line" smooth="yes"/>
      <point x="136" y="117"/>
      <point x="381" y="-41"/>
    </contour>
    <contour>
      <point x="845" y="131" type="curve" smooth="yes"/>
      <point x="535" y="131"/>
      <point x="353" y="226"/>
      <point x="353" y="394" type="curve" smooth="yes"/>
      <point x="353" y="399" type="line" smooth="yes"/>
      <point x="353" y="557"/>
      <point x="527" y="649"/>
      <point x="845" y="683" type="curve"/>
      <point x="1177" y="649"/>
      <point x="1337" y="557"/>
      <point x="1337" y="399" type="curve" smooth="yes"/>
      <point x="1337" y="395" type="line" smooth="yes"/>
      <point x="1337" y="227"/>
      <point x="1159" y="131"/>
    </contour>
    <contour>
      <point x="740" y="755" type="line"/>
      <point x="955" y="755" type="line"/>
      <point x="955" y="1132" type="line"/>
      <point x="740" y="1132" type="line"/>
    </contour>
    <contour>
      <point x="25" y="1041" type="line"/>
      <point x="1634" y="1041" type="line"/>
      <point x="1634" y="1197" type="line"/>
      <point x="25" y="1197" type="line"/>
    </contour>
    <component base="_cap.shiro_left"/>
    <component base="_cap.shiro_right" xOffset="1434"/>
  </outline>
</glyph>
<glyph name="Dda.gm" format="2">
  <advance width="1604"/>
  <unicode hex="0A21"/>
  <anchor x="1476" y="100" name="bottom"/>
  <anchor x="1570" y="100" name="bottom1"/>
  <anchor x="1628" y="1200" name="top"/>
  <outline>
    <contour>
      <point x="699" y="-34" type="curve" smooth="yes"/>
      <point x="1217" y="-34"/>
      <point x="1468" y="106"/>
      <point x="1468" y="365" type="curve" smooth="yes"/>
      <point x="1468" y="376" type="line" smooth="yes"/>
      <point x="1468" y="567"/>
      <point x="1333" y="716"/>
      <point x="1066" y="717" type="curve"/>
      <point x="1139" y="678" type="line"/>
      <point x="1139" y="717" type="line"/>
      <point x="1303" y="727"/>
      <point x="1444" y="832"/>
      <point x="1444" y="1046" type="curve" smooth="yes"/>
      <point x="1444" y="1123" type="line"/>
      <point x="1225" y="1123" type="line"/>
      <point x="1225" y="1045" type="line" smooth="yes"/>
      <point x="1225" y="893"/>
      <point x="1132" y="800"/>
      <point x="909" y="800" type="curve" smooth="yes"/>
      <point x="260" y="800" type="line"/>
      <point x="260" y="636" type="line"/>
      <point x="909" y="636" type="line" smooth="yes"/>
      <point x="1133" y="636"/>
      <point x="1255" y="529"/>
      <point x="1255" y="388" type="curve"/>
      <point x="1255" y="385" type="line"/>
      <point x="1255" y="210"/>
      <point x="1109" y="128"/>
      <point x="694" y="128" type="curve" smooth="yes"/>
      <point x="440" y="128"/>
      <point x="325" y="165"/>
      <point x="325" y="227" type="curve" smooth="yes"/>
      <point x="325" y="229" type="line" smooth="yes"/>
      <point x="325" y="292"/>
      <point x="410" y="325"/>
      <point x="635" y="325" type="curve" smooth="yes"/>
      <point x="858" y="325"/>
      <point x="1048" y="270"/>
      <point x="1155" y="157" type="curve"/>
      <point x="1185" y="179" type="line"/>
      <point x="1148" y="362"/>
      <point x="1030" y="481"/>
      <point x="572" y="481" type="curve" smooth="yes"/>
      <point x="237" y="481"/>
      <point x="110" y="394"/>
      <point x="110" y="231" type="curve" smooth="yes"/>
      <point x="110" y="223" type="line" smooth="yes"/>
      <point x="110" y="71"/>
      <point x="293" y="-34"/>
    </contour>
    <contour>
      <point x="69" y="1041" type="line"/>
      <point x="1252" y="1048" type="line"/>
      <point x="1259" y="1041" type="line"/>
      <point x="1592" y="1041" type="line"/>
      <point x="1592" y="1197" type="line"/>
      <point x="58" y="1197" type="line"/>
    </contour>
    <component base="_cap.shiro_left"/>
    <component base="_cap.shiro_right" xOffset="1358"/>
  </outline>
</glyph>
<glyph name="Ddha.gm" format="2">
  <advance width="1694"/>
  <unicode hex="0A22"/>
  <anchor x="1609" y="89" name="bottom"/>
  <anchor x="1751" y="100" name="bottom1"/>
  <anchor x="1663" y="1200" name="top"/>
  <outline>
    <contour>
      <point x="1035" y="-40" type="curve" smooth="yes"/>
      <point x="1392" y="-40"/>
      <point x="1557" y="57"/>
      <point x="1557" y="221" type="curve" smooth="yes"/>
      <point x="1557" y="225" type="line" smooth="yes"/>
      <point x="1557" y="396"/>
      <point x="1437" y="489"/>
      <point x="1123" y="489" type="curve" smooth="yes"/>
      <point x="778" y="489"/>
      <point x="596" y="379"/>
      <point x="561" y="152" type="curve"/>
      <point x="594" y="144" type="line"/>
      <point x="664" y="266"/>
      <point x="845" y="321"/>
      <point x="1061" y="321" type="curve" smooth="yes"/>
      <point x="1257" y="321"/>
      <point x="1338" y="291"/>
      <point x="1338" y="225" type="curve" smooth="yes"/>
      <point x="1338" y="224" type="line" smooth="yes"/>
      <point x="1338" y="162"/>
      <point x="1242" y="128"/>
      <point x="1031" y="128" type="curve" smooth="yes"/>
      <point x="600" y="128"/>
      <point x="379" y="319"/>
      <point x="379" y="682" type="curve"/>
      <point x="379" y="957" type="line"/>
      <point x="164" y="922" type="line"/>
      <point x="164" y="688" type="line" smooth="yes"/>
      <point x="164" y="211"/>
      <point x="501" y="-40"/>
    </contour>
    <contour>
      <point x="279" y="632" type="line"/>
      <point x="1479" y="632" type="line"/>
      <point x="1479" y="1129" type="line"/>
      <point x="1265" y="1129" type="line"/>
      <point x="1265" y="796" type="line"/>
      <point x="279" y="796" type="line"/>
    </contour>
    <contour>
      <point x="55" y="1041" type="line"/>
      <point x="1661" y="1041" type="line"/>
      <point x="1661" y="1197" type="line"/>
      <point x="55" y="1197" type="line"/>
    </contour>
    <component base="_cap.shiro_left"/>
    <component base="_cap.shiro_right" xOffset="1443"/>
  </outline>
</glyph>
<glyph name="Nna.gm" format="2">
  <advance width="1629"/>
  <unicode hex="0A23"/>
  <anchor x="1596" y="100" name="bottom"/>
  <anchor x="1692" y="100" name="bottom1"/>
  <anchor x="1634" y="1200" name="top"/>
  <outline>
    <contour>
      <point x="917" y="-37" type="curve" smooth="yes"/>
      <point x="1143" y="-37"/>
      <point x="1334" y="-2"/>
      <point x="1481" y="51" type="curve"/>
      <point x="1497" y="228" type="line"/>
      <point x="1334" y="171"/>
      <point x="1148" y="135"/>
      <point x="932" y="135" type="curve" smooth="yes"/>
      <point x="539" y="135"/>
      <point x="334" y="236"/>
      <point x="334" y="396" type="curve"/>
      <point x="334" y="423" type="line"/>
      <point x="258" y="337" type="line"/>
      <point x="521" y="377"/>
      <point x="787" y="396"/>
      <point x="1070" y="398" type="curve"/>
      <point x="1070" y="719" type="line"/>
      <point x="853" y="720" type="line"/>
      <point x="853" y="560" type="line"/>
      <point x="593" y="554"/>
      <point x="356" y="531"/>
      <point x="126" y="488" type="curve"/>
      <point x="126" y="416" type="line"/>
      <point x="126" y="142"/>
      <point x="396" y="-37"/>
    </contour>
    <contour>
      <point x="1310" y="622" type="curve" smooth="yes"/>
      <point x="1469" y="622" type="line"/>
      <point x="1469" y="788" type="line"/>
      <point x="1311" y="788" type="line" smooth="yes"/>
      <point x="750" y="788"/>
      <point x="512" y="905"/>
      <point x="512" y="1116" type="curve" smooth="yes"/>
      <point x="512" y="1140" type="line"/>
      <point x="281" y="1140" type="line"/>
      <point x="281" y="1127" type="line" smooth="yes"/>
      <point x="281" y="840"/>
      <point x="554" y="622"/>
    </contour>
    <contour>
      <point x="14" y="1041" type="line"/>
      <point x="1593" y="1041" type="line"/>
      <point x="1600" y="1197" type="line"/>
      <point x="14" y="1197" type="line"/>
    </contour>
    <component base="_cap.shiro_left"/>
    <component base="_cap.shiro_right" xOffset="1379"/>
  </outline>
</glyph>
<glyph name="Ta.gm" format="2">
  <advance width="1534"/>
  <unicode hex="0A24"/>
  <anchor x="1313" y="100" name="bottom"/>
  <anchor x="1521" y="100" name="bottom1"/>
  <anchor x="1560" y="1200" name="top"/>
  <outline>
    <contour>
      <point x="46" y="1041" type="line"/>
      <point x="1502" y="1041" type="line"/>
      <point x="1502" y="1197" type="line"/>
      <point x="46" y="1197" type="line"/>
    </contour>
    <contour>
      <point x="713" y="-18" type="curve" smooth="yes"/>
      <point x="1169" y="-18"/>
      <point x="1398" y="98"/>
      <point x="1398" y="334" type="curve" smooth="yes"/>
      <point x="1398" y="340" type="line" smooth="yes"/>
      <point x="1398" y="520"/>
      <point x="1248" y="637"/>
      <point x="1002" y="646" type="curve"/>
      <point x="1040" y="614" type="line"/>
      <point x="1040" y="648" type="line"/>
      <point x="1246" y="664"/>
      <point x="1376" y="786"/>
      <point x="1376" y="1026" type="curve" smooth="yes"/>
      <point x="1376" y="1120" type="line"/>
      <point x="1152" y="1120" type="line"/>
      <point x="1152" y="1031" type="line" smooth="yes"/>
      <point x="1152" y="848"/>
      <point x="1063" y="725"/>
      <point x="847" y="725" type="curve" smooth="yes"/>
      <point x="224" y="725" type="line"/>
      <point x="224" y="555" type="line"/>
      <point x="849" y="555" type="line" smooth="yes"/>
      <point x="1073" y="555"/>
      <point x="1179" y="473"/>
      <point x="1179" y="366" type="curve" smooth="yes"/>
      <point x="1179" y="364" type="line" smooth="yes"/>
      <point x="1179" y="225"/>
      <point x="1020" y="156"/>
      <point x="714" y="156" type="curve" smooth="yes"/>
      <point x="515" y="156"/>
      <point x="267" y="203"/>
      <point x="101" y="264" type="curve"/>
      <point x="117" y="79" type="line"/>
      <point x="239" y="35"/>
      <point x="480" y="-18"/>
    </contour>
    <component base="_cap.shiro_left"/>
    <component base="_cap.shiro_right" xOffset="1288"/>
  </outline>
</glyph>
<glyph name="Tha.gm" format="2">
  <advance width="1738"/>
  <unicode hex="0A25"/>
  <anchor x="1838" y="100" name="bottom"/>
  <anchor x="1645" y="100" name="bottom1"/>
  <anchor x="1721" y="1200" name="top"/>
  <outline>
    <contour>
      <point x="349" y="638" type="line"/>
      <point x="1423" y="638" type="line"/>
      <point x="1423" y="804" type="line"/>
      <point x="340" y="804" type="line"/>
    </contour>
    <contour>
      <point x="290" y="1041" type="line"/>
      <point x="352" y="1041" type="line"/>
      <point x="362" y="1050" type="line"/>
      <point x="1425" y="1050" type="line"/>
      <point x="1439" y="1041" type="line"/>
      <point x="1492" y="1041" type="line"/>
      <point x="1492" y="1197" type="line"/>
      <point x="290" y="1197" type="line"/>
    </contour>
    <contour>
      <point x="847" y="169" type="curve" smooth="yes"/>
      <point x="1008" y="169"/>
      <point x="1164" y="192"/>
      <point x="1270" y="235" type="curve"/>
      <point x="1319" y="386" type="line"/>
      <point x="1338" y="386" type="line"/>
      <point x="1344" y="448" type="line"/>
      <point x="1223" y="378"/>
      <point x="1052" y="341"/>
      <point x="864" y="341" type="curve" smooth="yes"/>
      <point x="663" y="341"/>
      <point x="477" y="393"/>
      <point x="354" y="494" type="curve"/>
      <point x="378" y="442" type="line"/>
      <point x="428" y="569"/>
      <point x="461" y="708"/>
      <point x="461" y="932" type="curve" smooth="yes"/>
      <point x="461" y="1010"/>
      <point x="457" y="1099"/>
      <point x="448" y="1197" type="curve"/>
      <point x="36" y="1197" type="line"/>
      <point x="36" y="1041" type="line"/>
      <point x="237" y="1041" type="line"/>
      <point x="241" y="990"/>
      <point x="243" y="939"/>
      <point x="243" y="890" type="curve" smooth="yes"/>
      <point x="243" y="684"/>
      <point x="206" y="536"/>
      <point x="144" y="407" type="curve"/>
      <point x="295" y="264"/>
      <point x="534" y="169"/>
    </contour>
    <component base="_danda" xOffset="1151"/>
    <component base="_cap.shiro_left"/>
  </outline>
</glyph>
<glyph name="Da.gm" format="2">
  <advance width="1629"/>
  <unicode hex="0A26"/>
  <anchor x="1551" y="90" name="bottom"/>
  <anchor x="1696" y="100" name="bottom1"/>
  <anchor x="1636" y="1200" name="top"/>
  <outline>
    <contour>
      <point x="977" y="-32" type="curve" smooth="yes"/>
      <point x="1181" y="-32"/>
      <point x="1386" y="11"/>
      <point x="1485" y="62" type="curve"/>
      <point x="1501" y="251" type="line"/>
      <point x="1370" y="192"/>
      <point x="1168" y="142"/>
      <point x="980" y="142" type="curve" smooth="yes"/>
      <point x="584" y="142"/>
      <point x="379" y="305"/>
      <point x="379" y="627" type="curve"/>
      <point x="379" y="637" type="line"/>
      <point x="379" y="644" type="line"/>
      <point x="379" y="894" type="line"/>
      <point x="164" y="859" type="line"/>
      <point x="164" y="629" type="line" smooth="yes"/>
      <point x="164" y="195"/>
      <point x="445" y="-32"/>
    </contour>
    <contour>
      <point x="281" y="527" type="line"/>
      <point x="1452" y="527" type="line"/>
      <point x="1452" y="1129" type="line"/>
      <point x="1242" y="1129" type="line"/>
      <point x="1242" y="697" type="line"/>
      <point x="281" y="697" type="line"/>
    </contour>
    <contour>
      <point x="17" y="1041" type="line"/>
      <point x="1586" y="1041" type="line"/>
      <point x="1586" y="1197" type="line"/>
      <point x="17" y="1197" type="line"/>
    </contour>
    <component base="_cap.shiro_left"/>
    <component base="_cap.shiro_right" xOffset="1378"/>
  </outline>
</glyph>
<glyph name="Dha.gm" format="2">
  <advance width="1660"/>
  <unicode hex="0A27"/>
  <anchor x="1760" y="100" name="bottom"/>
  <anchor x="1640" y="100" name="bottom1"/>
  <anchor x="1643" y="1200" name="top"/>
  <outline>
    <contour>
      <point x="300" y="1041" type="line"/>
      <point x="1405" y="1041" type="line"/>
      <point x="1405" y="1197" type="line"/>
      <point x="293" y="1197" type="line"/>
    </contour>
    <contour>
      <point x="827" y="174" type="curve" smooth="yes"/>
      <point x="966" y="174"/>
      <point x="1087" y="197"/>
      <point x="1194" y="240" type="curve"/>
      <point x="1243" y="391" type="line"/>
      <point x="1262" y="391" type="line"/>
      <point x="1268" y="453" type="line"/>
      <point x="1146" y="383"/>
      <point x="1009" y="346"/>
      <point x="844" y="346" type="curve" smooth="yes"/>
      <point x="651" y="346"/>
      <point x="472" y="398"/>
      <point x="354" y="499" type="curve"/>
      <point x="378" y="442" type="line"/>
      <point x="428" y="569"/>
      <point x="461" y="708"/>
      <point x="461" y="932" type="curve" smooth="yes"/>
      <point x="461" y="1010"/>
      <point x="457" y="1099"/>
      <point x="448" y="1197" type="curve"/>
      <point x="36" y="1197" type="line"/>
      <point x="36" y="1041" type="line"/>
      <point x="237" y="1041" type="line"/>
      <point x="241" y="990"/>
      <point x="243" y="939"/>
      <point x="243" y="890" type="curve" smooth="yes"/>
      <point x="243" y="686"/>
      <point x="206" y="540"/>
      <point x="144" y="412" type="curve"/>
      <point x="291" y="264"/>
      <point x="517" y="174"/>
    </contour>
    <component base="_danda" xOffset="1073"/>
    <component base="_cap.shiro_left"/>
  </outline>
</glyph>
<glyph name="Na.gm" format="2">
  <advance width="1646"/>
  <unicode hex="0A28"/>
  <anchor x="1659" y="75" name="bottom"/>
  <anchor x="1630" y="100" name="bottom1"/>
  <anchor x="1118" y="1200" name="top"/>
  <outline>
    <contour>
      <point x="283" y="0" type="curve"/>
      <point x="532" y="0" type="line"/>
      <point x="531" y="12" type="line"/>
      <point x="412" y="102"/>
      <point x="351" y="205"/>
      <point x="351" y="314" type="curve" smooth="yes"/>
      <point x="351" y="315" type="line" smooth="yes"/>
      <point x="351" y="492"/>
      <point x="529" y="609"/>
      <point x="831" y="673" type="curve"/>
      <point x="1126" y="609"/>
      <point x="1308" y="492"/>
      <point x="1308" y="315" type="curve" smooth="yes"/>
      <point x="1308" y="314" type="line"/>
      <point x="1308" y="205"/>
      <point x="1247" y="101"/>
      <point x="1129" y="13" type="curve"/>
      <point x="1126" y="0" type="line"/>
      <point x="1375" y="0" type="line"/>
      <point x="1476" y="81"/>
      <point x="1529" y="203"/>
      <point x="1529" y="329" type="curve" smooth="yes"/>
      <point x="1529" y="340" type="line" smooth="yes"/>
      <point x="1529" y="586"/>
      <point x="1290" y="763"/>
      <point x="830" y="847" type="curve"/>
      <point x="365" y="763"/>
      <point x="131" y="586"/>
      <point x="131" y="340" type="curve" smooth="yes"/>
      <point x="131" y="331" type="line" smooth="yes"/>
      <point x="131" y="201"/>
      <point x="183" y="81"/>
    </contour>
    <contour>
      <point x="729" y="737" type="line"/>
      <point x="939" y="737" type="line"/>
      <point x="939" y="1114" type="line"/>
      <point x="729" y="1114" type="line"/>
    </contour>
    <contour>
      <point x="44" y="1041" type="line"/>
      <point x="1609" y="1041" type="line"/>
      <point x="1609" y="1197" type="line"/>
      <point x="44" y="1197" type="line"/>
    </contour>
    <component base="_cap.shiro_left"/>
    <component base="_cap.shiro_right" xOffset="1395"/>
  </outline>
</glyph>
<glyph name="Pa.gm" format="2">
  <advance width="1651"/>
  <unicode hex="0A2A"/>
  <anchor x="1751" y="100" name="bottom"/>
  <anchor x="1621" y="100" name="bottom1"/>
  <anchor x="1625" y="1200" name="top"/>
  <outline>
    <contour>
      <point x="821" y="183" type="curve" smooth="yes"/>
      <point x="952" y="183"/>
      <point x="1075" y="206"/>
      <point x="1184" y="249" type="curve"/>
      <point x="1233" y="400" type="line"/>
      <point x="1252" y="400" type="line"/>
      <point x="1258" y="462" type="line"/>
      <point x="1134" y="392"/>
      <point x="995" y="355"/>
      <point x="838" y="355" type="curve" smooth="yes"/>
      <point x="647" y="355"/>
      <point x="471" y="407"/>
      <point x="354" y="508" type="curve"/>
      <point x="378" y="442" type="line"/>
      <point x="428" y="569"/>
      <point x="461" y="708"/>
      <point x="461" y="932" type="curve" smooth="yes"/>
      <point x="461" y="1010"/>
      <point x="457" y="1099"/>
      <point x="448" y="1197" type="curve"/>
      <point x="36" y="1197" type="line"/>
      <point x="36" y="1041" type="line"/>
      <point x="237" y="1041" type="line"/>
      <point x="241" y="990"/>
      <point x="243" y="939"/>
      <point x="243" y="890" type="curve" smooth="yes"/>
      <point x="243" y="690"/>
      <point x="206" y="547"/>
      <point x="144" y="421" type="curve"/>
      <point x="290" y="273"/>
      <point x="514" y="183"/>
    </contour>
    <component base="_danda" xOffset="1064"/>
    <component base="_cap.shiro_left"/>
  </outline>
</glyph>
<glyph name="Pha.gm" format="2">
  <advance width="1630"/>
  <unicode hex="0A2B"/>
  <anchor x="1565" y="88" name="bottom"/>
  <anchor x="1700" y="100" name="bottom1"/>
  <anchor x="1602" y="1200" name="top"/>
  <outline>
    <contour>
      <point x="953" y="-37" type="curve" smooth="yes"/>
      <point x="1343" y="-37"/>
      <point x="1516" y="59"/>
      <point x="1516" y="241" type="curve" smooth="yes"/>
      <point x="1516" y="246" type="line" smooth="yes"/>
      <point x="1516" y="419"/>
      <point x="1375" y="517"/>
      <point x="1063" y="517" type="curve" smooth="yes"/>
      <point x="722" y="517"/>
      <point x="562" y="383"/>
      <point x="507" y="181" type="curve"/>
      <point x="573" y="160" type="line"/>
      <point x="643" y="283"/>
      <point x="799" y="355"/>
      <point x="1019" y="355" type="curve" smooth="yes"/>
      <point x="1209" y="355"/>
      <point x="1296" y="318"/>
      <point x="1296" y="245" type="curve" smooth="yes"/>
      <point x="1296" y="243" type="line" smooth="yes"/>
      <point x="1296" y="164"/>
      <point x="1204" y="125"/>
      <point x="955" y="125" type="curve" smooth="yes"/>
      <point x="658" y="125"/>
      <point x="354" y="219"/>
      <point x="354" y="460" type="curve" smooth="yes"/>
      <point x="354" y="463" type="line" smooth="yes"/>
      <point x="354" y="611"/>
      <point x="474" y="692"/>
      <point x="698" y="692" type="curve" smooth="yes"/>
      <point x="1418" y="692" type="line"/>
      <point x="1418" y="1129" type="line"/>
      <point x="1208" y="1129" type="line"/>
      <point x="1208" y="856" type="line"/>
      <point x="648" y="856" type="line" smooth="yes"/>
      <point x="323" y="856"/>
      <point x="137" y="714"/>
      <point x="137" y="465" type="curve" smooth="yes"/>
      <point x="137" y="459" type="line" smooth="yes"/>
      <point x="137" y="162"/>
      <point x="471" y="-37"/>
    </contour>
    <contour>
      <point x="42" y="1041" type="line"/>
      <point x="1248" y="1048" type="line"/>
      <point x="1256" y="1041" type="line"/>
      <point x="1620" y="1041" type="line"/>
      <point x="1620" y="1197" type="line"/>
      <point x="42" y="1197" type="line"/>
    </contour>
    <component base="_cap.shiro_left"/>
    <component base="_cap.shiro_right" xOffset="1389"/>
  </outline>
</glyph>
<glyph name="Ba.gm" format="2">
  <advance width="1765"/>
  <unicode hex="0A2C"/>
  <anchor x="1865" y="100" name="bottom"/>
  <anchor x="1750" y="100" name="bottom1"/>
  <anchor x="1748" y="1200" name="top"/>
  <outline>
    <contour>
      <point x="857" y="122" type="curve" smooth="yes"/>
      <point x="1041" y="122"/>
      <point x="1195" y="150"/>
      <point x="1305" y="204" type="curve"/>
      <point x="1348" y="332" type="line"/>
      <point x="1374" y="332" type="line"/>
      <point x="1362" y="397" type="line"/>
      <point x="1241" y="329"/>
      <point x="1083" y="294"/>
      <point x="899" y="294" type="curve" smooth="yes"/>
      <point x="543" y="294"/>
      <point x="362" y="409"/>
      <point x="362" y="573" type="curve"/>
      <point x="361" y="582" type="line"/>
      <point x="317" y="489" type="line"/>
      <point x="665" y="573"/>
      <point x="1067" y="613"/>
      <point x="1426" y="635" type="curve"/>
      <point x="1426" y="804" type="line"/>
      <point x="1152" y="785"/>
      <point x="885" y="757"/>
      <point x="662" y="724" type="curve"/>
      <point x="662" y="717" type="line"/>
      <point x="486" y="693"/>
      <point x="303" y="668"/>
      <point x="144" y="630" type="curve"/>
      <point x="144" y="604" type="line"/>
      <point x="144" y="313"/>
      <point x="416" y="122"/>
    </contour>
    <contour>
      <point x="821" y="714" type="curve"/>
      <point x="953" y="752" type="line"/>
      <point x="593" y="755"/>
      <point x="442" y="898"/>
      <point x="442" y="1057" type="curve" smooth="yes"/>
      <point x="442" y="1127" type="line"/>
      <point x="178" y="1127" type="line"/>
      <point x="178" y="1070" type="line" smooth="yes"/>
      <point x="178" y="850"/>
      <point x="374" y="714"/>
    </contour>
    <contour>
      <point x="53" y="1041" type="line"/>
      <point x="315" y="1041" type="line"/>
      <point x="332" y="1050" type="line"/>
      <point x="1434" y="1050" type="line"/>
      <point x="1459" y="1041" type="line"/>
      <point x="1478" y="1041" type="line"/>
      <point x="1471" y="1197" type="line"/>
      <point x="46" y="1197" type="line"/>
    </contour>
    <component base="_danda" xOffset="1178"/>
    <component base="_cap.shiro_left"/>
  </outline>
</glyph>
<glyph name="Bha.gm" format="2">
  <advance width="1609"/>
  <unicode hex="0A2D"/>
  <anchor x="1407" y="100" name="bottom"/>
  <anchor x="1528" y="95" name="bottom1"/>
  <anchor x="1655" y="1200" name="top"/>
  <outline>
    <contour>
      <point x="729" y="-29" type="curve" smooth="yes"/>
      <point x="1226" y="-29"/>
      <point x="1473" y="107"/>
      <point x="1473" y="351" type="curve" smooth="yes"/>
      <point x="1473" y="359" type="line" smooth="yes"/>
      <point x="1473" y="502"/>
      <point x="1381" y="602"/>
      <point x="1249" y="670" type="curve"/>
      <point x="1206" y="699" type="line"/>
      <point x="1086" y="802"/>
      <point x="880" y="888"/>
      <point x="618" y="888" type="curve" smooth="yes"/>
      <point x="341" y="888"/>
      <point x="170" y="810"/>
      <point x="170" y="631" type="curve"/>
      <point x="170" y="629" type="line"/>
      <point x="170" y="451"/>
      <point x="348" y="372"/>
      <point x="619" y="372" type="curve" smooth="yes"/>
      <point x="893" y="372"/>
      <point x="1121" y="459"/>
      <point x="1233" y="587" type="curve"/>
      <point x="1290" y="590" type="line"/>
      <point x="1291" y="652" type="line"/>
      <point x="1406" y="751"/>
      <point x="1471" y="890"/>
      <point x="1471" y="1046" type="curve" smooth="yes"/>
      <point x="1471" y="1120" type="line"/>
      <point x="1245" y="1120" type="line"/>
      <point x="1245" y="1054" type="line" smooth="yes"/>
      <point x="1245" y="870"/>
      <point x="1181" y="763"/>
      <point x="1117" y="689" type="curve"/>
      <point x="1111" y="689" type="line"/>
      <point x="1034" y="592"/>
      <point x="841" y="533"/>
      <point x="659" y="533" type="curve" smooth="yes"/>
      <point x="486" y="533"/>
      <point x="383" y="560"/>
      <point x="383" y="628" type="curve"/>
      <point x="383" y="630" type="line"/>
      <point x="383" y="700"/>
      <point x="485" y="727"/>
      <point x="659" y="727" type="curve" smooth="yes"/>
      <point x="833" y="727"/>
      <point x="1003" y="675"/>
      <point x="1109" y="592" type="curve"/>
      <point x="1130" y="571" type="line"/>
      <point x="1201" y="535"/>
      <point x="1253" y="486"/>
      <point x="1253" y="392" type="curve" smooth="yes"/>
      <point x="1253" y="389" type="line" smooth="yes"/>
      <point x="1253" y="231"/>
      <point x="1080" y="143"/>
      <point x="724" y="143" type="curve" smooth="yes"/>
      <point x="499" y="143"/>
      <point x="289" y="181"/>
      <point x="114" y="251" type="curve"/>
      <point x="130" y="66" type="line"/>
      <point x="296" y="6"/>
      <point x="501" y="-29"/>
    </contour>
    <contour>
      <point x="76" y="1041" type="line"/>
      <point x="1600" y="1041" type="line"/>
      <point x="1600" y="1197" type="line"/>
      <point x="76" y="1197" type="line"/>
    </contour>
    <component base="_cap.shiro_left"/>
    <component base="_cap.shiro_right" xOffset="1358"/>
  </outline>
</glyph>
<glyph name="Ma.gm" format="2">
  <advance width="1581"/>
  <unicode hex="0A2E"/>
  <anchor x="1681" y="100" name="bottom"/>
  <anchor x="1590" y="100" name="bottom1"/>
  <anchor x="1564" y="1200" name="top"/>
  <outline>
    <contour>
      <point x="178" y="79" type="curve"/>
      <point x="399" y="79" type="line"/>
      <point x="426" y="232"/>
      <point x="442" y="394"/>
      <point x="442" y="539" type="curve" smooth="yes"/>
      <point x="442" y="744"/>
      <point x="424" y="980"/>
      <point x="385" y="1197" type="curve"/>
      <point x="33" y="1197" type="line"/>
      <point x="35" y="1040" type="line"/>
      <point x="192" y="1040" type="line"/>
      <point x="215" y="881"/>
      <point x="227" y="708"/>
      <point x="227" y="560" type="curve" smooth="yes"/>
      <point x="227" y="410"/>
      <point x="211" y="240"/>
    </contour>
    <contour>
      <point x="326" y="401" type="line"/>
      <point x="1259" y="401" type="line"/>
      <point x="1259" y="579" type="line"/>
      <point x="326" y="579" type="line"/>
    </contour>
    <component base="_danda" xOffset="994"/>
    <component base="_cap.shiro_left"/>
  </outline>
</glyph>
<glyph name="Ya.gm" format="2">
  <advance width="1986"/>
  <unicode hex="0A2F"/>
  <anchor x="2086" y="100" name="bottom"/>
  <anchor x="1775" y="100" name="bottom1"/>
  <anchor x="1969" y="1200" name="top"/>
  <outline>
    <contour>
      <point x="744" y="137" type="curve" smooth="yes"/>
      <point x="862" y="137"/>
      <point x="995" y="155"/>
      <point x="1106" y="191" type="curve"/>
      <point x="1106" y="581" type="line"/>
      <point x="1681" y="581" type="line"/>
      <point x="1681" y="751" type="line"/>
      <point x="896" y="751" type="line"/>
      <point x="896" y="272" type="line"/>
      <point x="968" y="346" type="line"/>
      <point x="896" y="324"/>
      <point x="810" y="309"/>
      <point x="734" y="309" type="curve" smooth="yes"/>
      <point x="579" y="309"/>
      <point x="460" y="348"/>
      <point x="379" y="424" type="curve"/>
      <point x="431" y="536"/>
      <point x="459" y="708"/>
      <point x="459" y="914" type="curve" smooth="yes"/>
      <point x="459" y="968"/>
      <point x="457" y="1025"/>
      <point x="453" y="1083" type="curve"/>
      <point x="237" y="1083" type="line"/>
      <point x="242" y="1024"/>
      <point x="244" y="966"/>
      <point x="244" y="912" type="curve" smooth="yes"/>
      <point x="244" y="681"/>
      <point x="208" y="491"/>
      <point x="143" y="368" type="curve"/>
      <point x="272" y="216"/>
      <point x="476" y="137"/>
    </contour>
    <contour>
      <point x="26" y="1041" type="line"/>
      <point x="1646" y="1041" type="line"/>
      <point x="1646" y="1197" type="line"/>
      <point x="26" y="1197" type="line"/>
    </contour>
    <component base="_danda" xOffset="1399"/>
    <component base="_cap.shiro_left"/>
  </outline>
</glyph>
<glyph name="Ra.gm" format="2">
  <advance width="1690"/>
  <unicode hex="0A30"/>
  <anchor x="1575" y="100" name="bottom"/>
  <anchor x="1657" y="100" name="bottom1"/>
  <anchor x="1685" y="1200" name="top"/>
  <outline>
    <contour>
      <point x="883" y="-32" type="curve" smooth="yes"/>
      <point x="1290" y="-32"/>
      <point x="1501" y="131"/>
      <point x="1501" y="442" type="curve" smooth="yes"/>
      <point x="1501" y="1064" type="line"/>
      <point x="1291" y="1064" type="line"/>
      <point x="1291" y="674" type="line"/>
      <point x="1291" y="657" type="line"/>
      <point x="1291" y="444" type="line"/>
      <point x="1291" y="248"/>
      <point x="1160" y="140"/>
      <point x="884" y="140" type="curve" smooth="yes"/>
      <point x="575" y="140"/>
      <point x="366" y="256"/>
      <point x="366" y="422" type="curve" smooth="yes"/>
      <point x="366" y="427" type="line" smooth="yes"/>
      <point x="366" y="521"/>
      <point x="430" y="588"/>
      <point x="586" y="588" type="curve" smooth="yes"/>
      <point x="1400" y="588" type="line"/>
      <point x="1400" y="758" type="line"/>
      <point x="551" y="758" type="line" smooth="yes"/>
      <point x="274" y="758"/>
      <point x="145" y="633"/>
      <point x="145" y="435" type="curve" smooth="yes"/>
      <point x="145" y="424" type="line" smooth="yes"/>
      <point x="145" y="170"/>
      <point x="425" y="-32"/>
    </contour>
    <contour>
      <point x="34" y="1041" type="line"/>
      <point x="1655" y="1041" type="line"/>
      <point x="1655" y="1197" type="line"/>
      <point x="34" y="1197" type="line"/>
    </contour>
    <component base="_cap.shiro_left"/>
    <component base="_cap.shiro_right" xOffset="1442"/>
  </outline>
</glyph>
<glyph name="La.gm" format="2">
  <advance width="1870"/>
  <unicode hex="0A32"/>
  <anchor x="1889" y="100" name="bottom"/>
  <anchor x="1729" y="100" name="bottom1"/>
  <anchor x="1764" y="1200" name="top"/>
  <outline>
    <contour>
      <point x="938" y="367" type="curve"/>
      <point x="1219" y="504"/>
      <point x="1492" y="758"/>
      <point x="1571" y="1102" type="curve" smooth="yes"/>
      <point x="1580" y="1141" type="line"/>
      <point x="1363" y="1141" type="line"/>
      <point x="1347" y="1087" type="line" smooth="yes"/>
      <point x="1271" y="830"/>
      <point x="1121" y="679"/>
      <point x="938" y="556" type="curve"/>
      <point x="743" y="677"/>
      <point x="598" y="830"/>
      <point x="527" y="1087" type="curve" smooth="yes"/>
      <point x="512" y="1141" type="line"/>
      <point x="294" y="1141" type="line"/>
      <point x="303" y="1102" type="line" smooth="yes"/>
      <point x="382" y="761"/>
      <point x="627" y="504"/>
    </contour>
    <contour>
      <point x="279" y="0" type="curve"/>
      <point x="515" y="0" type="line"/>
      <point x="519" y="12" type="line"/>
      <point x="411" y="104"/>
      <point x="354" y="211"/>
      <point x="354" y="321" type="curve" smooth="yes"/>
      <point x="354" y="329" type="line" smooth="yes"/>
      <point x="354" y="478"/>
      <point x="449" y="586"/>
      <point x="606" y="627" type="curve"/>
      <point x="532" y="791" type="line"/>
      <point x="276" y="729"/>
      <point x="135" y="573"/>
      <point x="135" y="355" type="curve" smooth="yes"/>
      <point x="135" y="350" type="line" smooth="yes"/>
      <point x="135" y="222"/>
      <point x="184" y="98"/>
    </contour>
    <contour>
      <point x="1588" y="0" type="line"/>
      <point x="1684" y="89"/>
      <point x="1733" y="204"/>
      <point x="1733" y="338" type="curve" smooth="yes"/>
      <point x="1733" y="350" type="line" smooth="yes"/>
      <point x="1733" y="573"/>
      <point x="1592" y="729"/>
      <point x="1336" y="791" type="curve"/>
      <point x="1262" y="627" type="line"/>
      <point x="1423" y="585"/>
      <point x="1515" y="477"/>
      <point x="1515" y="329" type="curve" smooth="yes"/>
      <point x="1515" y="321" type="line" smooth="yes"/>
      <point x="1515" y="205"/>
      <point x="1458" y="98"/>
      <point x="1348" y="12" type="curve"/>
      <point x="1351" y="0" type="line"/>
    </contour>
    <contour>
      <point x="24" y="1041" type="line"/>
      <point x="1829" y="1041" type="line"/>
      <point x="1829" y="1197" type="line"/>
      <point x="24" y="1197" type="line"/>
    </contour>
    <component base="_cap.shiro_left"/>
    <component base="_cap.shiro_right" xOffset="1619"/>
  </outline>
</glyph>
<glyph name="Va.gm" format="2">
  <advance width="1666"/>
  <unicode hex="0A35"/>
  <anchor x="1555" y="88" name="bottom"/>
  <anchor x="1715" y="90" name="bottom1"/>
  <anchor x="1667" y="1200" name="top"/>
  <outline>
    <contour>
      <point x="468" y="338" type="curve"/>
      <point x="1428" y="338" type="line"/>
      <point x="1428" y="502" type="line"/>
      <point x="490" y="502" type="line" smooth="yes"/>
      <point x="385" y="502"/>
      <point x="328" y="536"/>
      <point x="328" y="599" type="curve" smooth="yes"/>
      <point x="328" y="661"/>
      <point x="384" y="690"/>
      <point x="489" y="690" type="curve" smooth="yes"/>
      <point x="1483" y="690" type="line"/>
      <point x="1483" y="1128" type="line"/>
      <point x="1274" y="1128" type="line"/>
      <point x="1274" y="854" type="line"/>
      <point x="467" y="854" type="line" smooth="yes"/>
      <point x="240" y="854"/>
      <point x="108" y="769"/>
      <point x="108" y="599" type="curve" smooth="yes"/>
      <point x="108" y="428"/>
      <point x="241" y="341"/>
    </contour>
    <contour>
      <point x="1204" y="-36" type="curve" smooth="yes"/>
      <point x="1318" y="-36"/>
      <point x="1404" y="-23"/>
      <point x="1489" y="2" type="curve"/>
      <point x="1506" y="171" type="line"/>
      <point x="1418" y="149"/>
      <point x="1318" y="136"/>
      <point x="1226" y="136" type="curve" smooth="yes"/>
      <point x="977" y="136"/>
      <point x="788" y="201"/>
      <point x="742" y="395" type="curve"/>
      <point x="518" y="395" type="line"/>
      <point x="608" y="73"/>
      <point x="854" y="-36"/>
    </contour>
    <contour>
      <point x="79" y="1041" type="line"/>
      <point x="1308" y="1049" type="line"/>
      <point x="1330" y="1041" type="line"/>
      <point x="1635" y="1041" type="line"/>
      <point x="1635" y="1197" type="line"/>
      <point x="79" y="1197" type="line"/>
    </contour>
    <component base="_cap.shiro_left"/>
    <component base="_cap.shiro_right" xOffset="1415"/>
  </outline>
</glyph>
<glyph name="Sha.gm" format="2">
  <advance width="1599"/>
  <unicode hex="0A36"/>
  <anchor x="1711" y="100" name="bottom"/>
  <anchor x="1600" y="100" name="bottom1"/>
  <anchor x="1593" y="1200" name="top"/>
  <outline>
    <contour>
      <point x="177" y="78" type="curve"/>
      <point x="398" y="78" type="line"/>
      <point x="426" y="232"/>
      <point x="442" y="394"/>
      <point x="442" y="539" type="curve" smooth="yes"/>
      <point x="442" y="746"/>
      <point x="422" y="983"/>
      <point x="384" y="1197" type="curve"/>
      <point x="18" y="1197" type="line"/>
      <point x="20" y="1040" type="line"/>
      <point x="191" y="1040" type="line"/>
      <point x="216" y="871"/>
      <point x="227" y="708"/>
      <point x="227" y="560" type="curve" smooth="yes"/>
      <point x="227" y="410"/>
      <point x="211" y="240"/>
    </contour>
    <contour>
      <point x="370" y="391" type="line"/>
      <point x="1308" y="391" type="line"/>
      <point x="1308" y="569" type="line"/>
      <point x="370" y="569" type="line"/>
    </contour>
    <contour>
      <point x="1200" y="0" type="line"/>
      <point x="1410" y="0" type="line"/>
      <point x="1410" y="1041" type="line"/>
      <point x="1583" y="1041" type="line"/>
      <point x="1583" y="1197" type="line"/>
      <point x="1199" y="1197" type="line"/>
      <point x="1199" y="493" type="line"/>
      <point x="1200" y="477" type="line"/>
    </contour>
    <contour>
      <point x="289" y="1041" type="line"/>
      <point x="1305" y="1041" type="line"/>
      <point x="1300" y="1197" type="line"/>
      <point x="289" y="1197" type="line"/>
    </contour>
    <contour>
      <point x="822" y="-8" type="curve" smooth="yes"/>
      <point x="915" y="-8"/>
      <point x="964" y="41"/>
      <point x="964" y="121" type="curve" smooth="yes"/>
      <point x="964" y="126" type="line" smooth="yes"/>
      <point x="964" y="203"/>
      <point x="915" y="253"/>
      <point x="822" y="253" type="curve" smooth="yes"/>
      <point x="730" y="253"/>
      <point x="681" y="203"/>
      <point x="681" y="126" type="curve" smooth="yes"/>
      <point x="681" y="121" type="line" smooth="yes"/>
      <point x="681" y="41"/>
      <point x="730" y="-8"/>
    </contour>
    <component base="_cap.shiro_right" xOffset="1351"/>
    <component base="_cap.shiro_left"/>
  </outline>
</glyph>
<glyph name="Sa.gm" format="2">
  <advance width="1601"/>
  <unicode hex="0A38"/>
  <anchor x="1701" y="100" name="bottom"/>
  <anchor x="1610" y="100" name="bottom1"/>
  <anchor x="1584" y="1200" name="top"/>
  <outline>
    <contour>
      <point x="178" y="79" type="curve"/>
      <point x="399" y="79" type="line"/>
      <point x="426" y="232"/>
      <point x="442" y="395"/>
      <point x="442" y="540" type="curve" smooth="yes"/>
      <point x="442" y="745"/>
      <point x="422" y="980"/>
      <point x="380" y="1197" type="curve"/>
      <point x="34" y="1197" type="line"/>
      <point x="35" y="1041" type="line"/>
      <point x="187" y="1041" type="line"/>
      <point x="213" y="882"/>
      <point x="227" y="708"/>
      <point x="227" y="560" type="curve" smooth="yes"/>
      <point x="227" y="411"/>
      <point x="211" y="241"/>
    </contour>
    <contour>
      <point x="335" y="391" type="line"/>
      <point x="1288" y="391" type="line"/>
      <point x="1288" y="569" type="line"/>
      <point x="335" y="569" type="line"/>
    </contour>
    <contour>
      <point x="226" y="1041" type="line"/>
      <point x="1366" y="1041" type="line"/>
      <point x="1366" y="1197" type="line"/>
      <point x="226" y="1197" type="line"/>
    </contour>
    <component base="_cap.shiro_left"/>
    <component base="_danda" xOffset="1014"/>
  </outline>
</glyph>
<glyph name="Ha.gm" format="2">
  <advance width="1670"/>
  <unicode hex="0A39"/>
  <anchor x="1555" y="100" name="bottom"/>
  <anchor x="1655" y="100" name="bottom1"/>
  <anchor x="1662" y="1200" name="top"/>
  <outline>
    <contour>
      <point x="872" y="-32" type="curve" smooth="yes"/>
      <point x="1294" y="-32"/>
      <point x="1478" y="130"/>
      <point x="1478" y="450" type="curve" smooth="yes"/>
      <point x="1478" y="1114" type="line"/>
      <point x="1268" y="1114" type="line"/>
      <point x="1268" y="452" type="line" smooth="yes"/>
      <point x="1268" y="255"/>
      <point x="1144" y="140"/>
      <point x="871" y="140" type="curve" smooth="yes"/>
      <point x="569" y="140"/>
      <point x="358" y="257"/>
      <point x="358" y="414" type="curve" smooth="yes"/>
      <point x="358" y="419" type="line" smooth="yes"/>
      <point x="358" y="524"/>
      <point x="445" y="582"/>
      <point x="603" y="582" type="curve" smooth="yes"/>
      <point x="915" y="582" type="line"/>
      <point x="954" y="752" type="line"/>
      <point x="568" y="752" type="line" smooth="yes"/>
      <point x="284" y="752"/>
      <point x="137" y="639"/>
      <point x="137" y="425" type="curve" smooth="yes"/>
      <point x="137" y="414" type="line" smooth="yes"/>
      <point x="137" y="167"/>
      <point x="382" y="-32"/>
    </contour>
    <contour>
      <point x="29" y="1041" type="line"/>
      <point x="1632" y="1041" type="line"/>
      <point x="1632" y="1197" type="line"/>
      <point x="29" y="1197" type="line"/>
    </contour>
    <component base="_cap.shiro_left"/>
    <component base="_cap.shiro_right" xOffset="1419"/>
  </outline>
</glyph>
<glyph name="Nukta.gm" format="2">
  <unicode hex="0A3C"/>
  <outline>
    <contour>
      <point x="-213" y="-276" type="curve" smooth="yes"/>
      <point x="-120" y="-276"/>
      <point x="-71" y="-227"/>
      <point x="-71" y="-147" type="curve" smooth="yes"/>
      <point x="-71" y="-142" type="line" smooth="yes"/>
      <point x="-71" y="-65"/>
      <point x="-120" y="-15"/>
      <point x="-213" y="-15" type="curve" smooth="yes"/>
      <point x="-305" y="-15"/>
      <point x="-354" y="-65"/>
      <point x="-354" y="-142" type="curve" smooth="yes"/>
      <point x="-354" y="-147" type="line" smooth="yes"/>
      <point x="-354" y="-227"/>
      <point x="-305" y="-276"/>
    </contour>
  </outline>
</glyph>
<glyph name="MatraU.gm" format="2">
  <unicode hex="0A41"/>
  <anchor x="800" y="100" name="_bottom1"/>
  <outline>
    <contour>
      <point x="4" y="-410" type="curve" smooth="yes"/>
      <point x="196" y="-410"/>
      <point x="388" y="-378"/>
      <point x="530" y="-313" type="curve"/>
      <point x="544" y="-145" type="line"/>
      <point x="395" y="-209"/>
      <point x="208" y="-242"/>
      <point x="19" y="-242" type="curve" smooth="yes"/>
      <point x="-165" y="-242"/>
      <point x="-362" y="-209"/>
      <point x="-519" y="-144" type="curve"/>
      <point x="-505" y="-313" type="line"/>
      <point x="-366" y="-378"/>
      <point x="-178" y="-410"/>
    </contour>
  </outline>
</glyph>
<glyph name="MatraUu.gm" format="2">
  <unicode hex="0A42"/>
  <anchor x="800" y="100" name="_bottom1"/>
  <outline>
    <contour>
      <point x="8" y="-324" type="curve" smooth="yes"/>
      <point x="202" y="-322"/>
      <point x="393" y="-290"/>
      <point x="529" y="-227" type="curve"/>
      <point x="541" y="-63" type="line"/>
      <point x="403" y="-128"/>
      <point x="217" y="-161"/>
      <point x="16" y="-161" type="curve" smooth="yes"/>
      <point x="-179" y="-161"/>
      <point x="-377" y="-128"/>
      <point x="-522" y="-62" type="curve"/>
      <point x="-510" y="-227" type="line"/>
      <point x="-374" y="-290"/>
      <point x="-183" y="-322"/>
    </contour>
    <contour>
      <point x="8" y="-597" type="curve" smooth="yes"/>
      <point x="202" y="-597"/>
      <point x="393" y="-565"/>
      <point x="529" y="-500" type="curve"/>
      <point x="541" y="-336" type="line"/>
      <point x="403" y="-401"/>
      <point x="217" y="-434"/>
      <point x="16" y="-434" type="curve" smooth="yes"/>
      <point x="-179" y="-434"/>
      <point x="-377" y="-400"/>
      <point x="-522" y="-335" type="curve"/>
      <point x="-510" y="-500" type="line"/>
      <point x="-374" y="-565"/>
      <point x="-183" y="-597"/>
    </contour>
  </outline>
</glyph>
<glyph name="MatraEe.gm" format="2">
  <unicode hex="0A47"/>
  <anchor x="600" y="1200" name="_top"/>
  <anchor x="830" y="1375" name="top1"/>
  <outline>
    <contour>
      <point x="295" y="1174" type="line"/>
      <point x="405" y="1174" type="line"/>
      <point x="356" y="1577"/>
      <point x="132" y="1735"/>
      <point x="-347" y="1735" type="curve"/>
      <point x="-438" y="1735"/>
      <point x="-514" y="1730"/>
      <point x="-600" y="1720" type="curve"/>
      <point x="-621" y="1539" type="line"/>
      <point x="-534" y="1549"/>
      <point x="-421" y="1554"/>
      <point x="-366" y="1554" type="curve"/>
      <point x="107" y="1554"/>
      <point x="249" y="1406"/>
      <point x="293" y="1184" type="curve" smooth="yes"/>
    </contour>
  </outline>
</glyph>
<glyph name="MatraAi.gm" format="2">
  <unicode hex="0A48"/>
  <anchor x="594" y="1200" name="_top"/>
  <anchor x="944" y="1382" name="top1"/>
  <outline>
    <contour>
      <point x="316" y="1178" type="line"/>
      <point x="426" y="1178" type="line"/>
      <point x="413" y="1329" type="line" smooth="yes"/>
      <point x="379" y="1728"/>
      <point x="189" y="1900"/>
      <point x="-343" y="1900" type="curve" smooth="yes"/>
      <point x="-431" y="1900"/>
      <point x="-535" y="1893"/>
      <point x="-679" y="1872" type="curve"/>
      <point x="-695" y="1695" type="line"/>
      <point x="-566" y="1715"/>
      <point x="-426" y="1726"/>
      <point x="-329" y="1726" type="curve" smooth="yes"/>
      <point x="113" y="1726"/>
      <point x="287" y="1568"/>
      <point x="326" y="1338" type="curve"/>
      <point x="316" y="1336" type="line"/>
    </contour>
    <contour>
      <point x="289" y="1178" type="line"/>
      <point x="359" y="1178" type="line"/>
      <point x="354" y="1214" type="line" smooth="yes"/>
      <point x="323" y="1437"/>
      <point x="165" y="1582"/>
      <point x="-266" y="1582" type="curve" smooth="yes"/>
      <point x="-338" y="1582"/>
      <point x="-444" y="1575"/>
      <point x="-555" y="1561" type="curve"/>
      <point x="-572" y="1381" type="line"/>
      <point x="-434" y="1398"/>
      <point x="-324" y="1407"/>
      <point x="-234" y="1407" type="curve" smooth="yes"/>
      <point x="129" y="1407"/>
      <point x="268" y="1320"/>
      <point x="286" y="1198" type="curve" smooth="yes"/>
    </contour>
  </outline>
</glyph>
<glyph name="MatraOo.gm" format="2">
  <unicode hex="0A4B"/>
  <anchor x="600" y="1200" name="_top"/>
  <anchor x="880" y="1373" name="top1"/>
  <outline>
    <contour>
      <point x="289" y="1189" type="curve"/>
      <point x="401" y="1189" type="line"/>
      <point x="403" y="1219"/>
      <point x="406" y="1247"/>
      <point x="406" y="1279" type="curve" smooth="yes"/>
      <point x="406" y="1531"/>
      <point x="267" y="1603"/>
      <point x="0" y="1611" type="curve" smooth="yes"/>
      <point x="-180" y="1621" type="line" smooth="yes"/>
      <point x="-348" y="1627"/>
      <point x="-444" y="1677"/>
      <point x="-450" y="1834" type="curve"/>
      <point x="-578" y="1834" type="line"/>
      <point x="-578" y="1746" type="line" smooth="yes"/>
      <point x="-578" y="1550"/>
      <point x="-475" y="1447"/>
      <point x="-228" y="1439" type="curve" smooth="yes"/>
      <point x="-27" y="1429" type="line" smooth="yes"/>
      <point x="186" y="1421"/>
      <point x="279" y="1375"/>
    </contour>
  </outline>
</glyph>
<glyph name="MatraAu.gm" format="2">
  <unicode hex="0A4C"/>
  <anchor x="600" y="1200" name="_top"/>
  <anchor x="1161" y="1460" name="top1"/>
  <outline>
    <contour>
      <point x="43" y="1320" type="curve"/>
      <point x="179" y="1320" type="line"/>
      <point x="163" y="1347"/>
      <point x="154" y="1378"/>
      <point x="154" y="1406" type="curve" smooth="yes"/>
      <point x="154" y="1492"/>
      <point x="215" y="1543"/>
      <point x="317" y="1543" type="curve" smooth="yes"/>
      <point x="419" y="1543"/>
      <point x="480" y="1492"/>
      <point x="480" y="1406" type="curve" smooth="yes"/>
      <point x="480" y="1380"/>
      <point x="470" y="1348"/>
      <point x="454" y="1320" type="curve"/>
      <point x="591" y="1320" type="line"/>
      <point x="628" y="1359"/>
      <point x="648" y="1409"/>
      <point x="648" y="1471" type="curve" smooth="yes"/>
      <point x="648" y="1620"/>
      <point x="524" y="1715"/>
      <point x="314" y="1715" type="curve" smooth="yes"/>
      <point x="224" y="1715"/>
      <point x="153" y="1691"/>
      <point x="105" y="1658" type="curve"/>
      <point x="119" y="1633" type="line"/>
      <point x="33" y="1603"/>
      <point x="-14" y="1537"/>
      <point x="-14" y="1456" type="curve" smooth="yes"/>
      <point x="-14" y="1406"/>
      <point x="6" y="1358"/>
    </contour>
    <contour>
      <point x="-134" y="1549" type="curve" smooth="yes"/>
      <point x="-64" y="1549"/>
      <point x="-3" y="1565"/>
      <point x="46" y="1596" type="curve"/>
      <point x="59" y="1578" type="line"/>
      <point x="273" y="1584" type="line"/>
      <point x="314" y="1715" type="line"/>
      <point x="-28" y="1715" type="line" smooth="yes"/>
      <point x="-164" y="1715"/>
      <point x="-269" y="1752"/>
      <point x="-281" y="1899" type="curve"/>
      <point x="-399" y="1899" type="line"/>
      <point x="-396" y="1803" type="line" smooth="yes"/>
      <point x="-391" y="1627"/>
      <point x="-288" y="1549"/>
    </contour>
  </outline>
</glyph>
<glyph name="Virama.gm" format="2">
  <unicode hex="0A4D"/>
  <anchor x="800" y="100" name="_bottom"/>
  <outline>
    <contour>
      <point x="620" y="-553" type="line"/>
      <point x="808" y="-553" type="line"/>
      <point x="523" y="-146" type="line"/>
      <point x="309" y="-146" type="line"/>
    </contour>
  </outline>
</glyph>
<glyph name="Udaat.gm" format="2">
  <unicode hex="0A51"/>
  <anchor x="800" y="100" name="_bottom"/>
  <anchor x="600" y="259" name="bottom1"/>
  <outline>
    <contour>
      <point x="800" y="-570" type="curve"/>
      <point x="800" y="-409" type="line"/>
      <point x="609" y="-409"/>
      <point x="497" y="-320"/>
      <point x="497" y="-146" type="curve"/>
      <point x="287" y="-146" type="line"/>
      <point x="287" y="-415"/>
      <point x="477" y="-570"/>
    </contour>
  </outline>
</glyph>
<glyph name="Za.gm" format="2">
  <advance width="1671"/>
  <unicode hex="0A5B"/>
  <anchor x="1772" y="100" name="bottom"/>
  <anchor x="1630" y="100" name="bottom1"/>
  <anchor x="1654" y="1200" name="top"/>
  <outline>
    <contour>
      <point x="178" y="0" type="curve"/>
      <point x="396" y="0" type="line"/>
      <point x="422" y="153"/>
      <point x="437" y="338"/>
      <point x="437" y="512" type="curve" smooth="yes"/>
      <point x="437" y="648"/>
      <point x="427" y="792"/>
      <point x="411" y="899" type="curve"/>
      <point x="196" y="864" type="line"/>
      <point x="210" y="771"/>
      <point x="219" y="636"/>
      <point x="219" y="521" type="curve" smooth="yes"/>
      <point x="219" y="347"/>
      <point x="205" y="160"/>
    </contour>
    <contour>
      <point x="313" y="508" type="line"/>
      <point x="1359" y="508" type="line"/>
      <point x="1359" y="683" type="line"/>
      <point x="313" y="683" type="line"/>
    </contour>
    <contour>
      <point x="31" y="1041" type="line"/>
      <point x="1428" y="1041" type="line"/>
      <point x="1428" y="1197" type="line"/>
      <point x="31" y="1197" type="line"/>
    </contour>
    <contour>
      <point x="843" y="22" type="curve" smooth="yes"/>
      <point x="936" y="22"/>
      <point x="985" y="71"/>
      <point x="985" y="151" type="curve" smooth="yes"/>
      <point x="985" y="156" type="line" smooth="yes"/>
      <point x="985" y="233"/>
      <point x="936" y="283"/>
      <point x="843" y="283" type="curve" smooth="yes"/>
      <point x="751" y="283"/>
      <point x="702" y="233"/>
      <point x="702" y="156" type="curve" smooth="yes"/>
      <point x="702" y="151" type="line" smooth="yes"/>
      <point x="702" y="71"/>
      <point x="751" y="22"/>
    </contour>
    <component base="_danda" xOffset="1084"/>
    <component base="_cap.shiro_left"/>
  </outline>
</glyph>
<glyph name="Rra.gm" format="2">
  <advance width="1493"/>
  <unicode hex="0A5C"/>
  <anchor x="1310" y="0" name="bottom"/>
  <anchor x="1590" y="-25" name="bottom1"/>
  <anchor x="1518" y="1200" name="top"/>
  <outline>
    <contour>
      <point x="696" y="27" type="curve" smooth="yes"/>
      <point x="1152" y="27"/>
      <point x="1357" y="156"/>
      <point x="1357" y="365" type="curve" smooth="yes"/>
      <point x="1357" y="375" type="line" smooth="yes"/>
      <point x="1357" y="539"/>
      <point x="1217" y="662"/>
      <point x="958" y="666" type="curve"/>
      <point x="989" y="635" type="line"/>
      <point x="989" y="669" type="line"/>
      <point x="1210" y="674"/>
      <point x="1334" y="825"/>
      <point x="1334" y="1038" type="curve" smooth="yes"/>
      <point x="1334" y="1120" type="line"/>
      <point x="1110" y="1120" type="line"/>
      <point x="1110" y="1048" type="line" smooth="yes"/>
      <point x="1110" y="871"/>
      <point x="1017" y="744"/>
      <point x="813" y="744" type="curve" smooth="yes"/>
      <point x="196" y="744" type="line"/>
      <point x="196" y="574" type="line"/>
      <point x="815" y="574" type="line" smooth="yes"/>
      <point x="1037" y="574"/>
      <point x="1138" y="496"/>
      <point x="1138" y="392" type="curve" smooth="yes"/>
      <point x="1138" y="391" type="line" smooth="yes"/>
      <point x="1138" y="264"/>
      <point x="1005" y="199"/>
      <point x="672" y="199" type="curve" smooth="yes"/>
      <point x="467" y="199"/>
      <point x="246" y="241"/>
      <point x="96" y="300" type="curve"/>
      <point x="111" y="142" type="line"/>
      <point x="256" y="84"/>
      <point x="456" y="27"/>
    </contour>
    <contour>
      <point x="426" y="-209" type="line"/>
      <point x="676" y="-209" type="line"/>
      <point x="330" y="135" type="line"/>
      <point x="111" y="142" type="line"/>
    </contour>
    <contour>
      <point x="1233" y="-209" type="line"/>
      <point x="1484" y="-209" type="line"/>
      <point x="1130" y="126" type="line"/>
      <point x="896" y="122" type="line"/>
    </contour>
    <contour>
      <point x="16" y="1041" type="line"/>
      <point x="1464" y="1041" type="line"/>
      <point x="1457" y="1197" type="line"/>
      <point x="16" y="1197" type="line"/>
    </contour>
    <component base="_cap.shiro_left"/>
    <component base="_cap.shiro_right" xOffset="1247"/>
  </outline>
</glyph>
<glyph name="zero.gm" format="2">
  <advance width="1400"/>
  <unicode hex="0A66"/>
  <outline>
    <contour>
      <point x="699" y="124" type="curve" smooth="yes"/>
      <point x="1071" y="124"/>
      <point x="1295" y="311"/>
      <point x="1295" y="590" type="curve" smooth="yes"/>
      <point x="1295" y="613" type="line" smooth="yes"/>
      <point x="1295" y="894"/>
      <point x="1071" y="1069"/>
      <point x="699" y="1069" type="curve" smooth="yes"/>
      <point x="328" y="1069"/>
      <point x="105" y="894"/>
      <point x="105" y="613" type="curve" smooth="yes"/>
      <point x="105" y="590" type="line" smooth="yes"/>
      <point x="105" y="311"/>
      <point x="328" y="124"/>
    </contour>
    <contour>
      <point x="700" y="299" type="curve" smooth="yes"/>
      <point x="469" y="299"/>
      <point x="325" y="411"/>
      <point x="325" y="591" type="curve" smooth="yes"/>
      <point x="325" y="606" type="line" smooth="yes"/>
      <point x="325" y="786"/>
      <point x="469" y="894"/>
      <point x="700" y="894" type="curve" smooth="yes"/>
      <point x="932" y="894"/>
      <point x="1075" y="786"/>
      <point x="1075" y="605" type="curve" smooth="yes"/>
      <point x="1075" y="590" type="line" smooth="yes"/>
      <point x="1075" y="411"/>
      <point x="932" y="299"/>
    </contour>
  </outline>
</glyph>
<glyph name="one.gm" format="2">
  <advance width="1425"/>
  <unicode hex="0A67"/>
  <outline>
    <contour>
      <point x="1064" y="0" type="line"/>
      <point x="1275" y="0" type="line"/>
      <point x="1275" y="782" type="line" smooth="yes"/>
      <point x="1275" y="1042"/>
      <point x="1058" y="1219"/>
      <point x="676" y="1219" type="curve" smooth="yes"/>
      <point x="311" y="1219"/>
      <point x="110" y="1073"/>
      <point x="110" y="831" type="curve" smooth="yes"/>
      <point x="110" y="823" type="line" smooth="yes"/>
      <point x="110" y="578"/>
      <point x="298" y="445"/>
      <point x="651" y="445" type="curve" smooth="yes"/>
      <point x="797" y="445"/>
      <point x="930" y="470"/>
      <point x="1010" y="511" type="curve"/>
      <point x="1059" y="684" type="line"/>
      <point x="1073" y="684" type="line"/>
      <point x="1069" y="720" type="line"/>
      <point x="1017" y="680"/>
      <point x="889" y="615"/>
      <point x="687" y="615" type="curve" smooth="yes"/>
      <point x="459" y="615"/>
      <point x="330" y="690"/>
      <point x="330" y="830" type="curve" smooth="yes"/>
      <point x="330" y="836" type="line" smooth="yes"/>
      <point x="330" y="970"/>
      <point x="445" y="1049"/>
      <point x="676" y="1049" type="curve" smooth="yes"/>
      <point x="928" y="1049"/>
      <point x="1064" y="947"/>
      <point x="1064" y="777" type="curve" smooth="yes"/>
    </contour>
  </outline>
</glyph>
<glyph name="two.gm" format="2">
  <advance width="1403"/>
  <unicode hex="0A68"/>
  <outline>
    <contour>
      <point x="616" y="345" type="curve" smooth="yes"/>
      <point x="1082" y="345"/>
      <point x="1293" y="498"/>
      <point x="1293" y="776" type="curve" smooth="yes"/>
      <point x="1293" y="786" type="line" smooth="yes"/>
      <point x="1293" y="1061"/>
      <point x="1065" y="1220"/>
      <point x="646" y="1220" type="curve" smooth="yes"/>
      <point x="474" y="1220"/>
      <point x="279" y="1178"/>
      <point x="118" y="1098" type="curve"/>
      <point x="118" y="926" type="line"/>
      <point x="278" y="999"/>
      <point x="473" y="1050"/>
      <point x="651" y="1050" type="curve" smooth="yes"/>
      <point x="929" y="1050"/>
      <point x="1073" y="954"/>
      <point x="1073" y="785" type="curve" smooth="yes"/>
      <point x="1073" y="781" type="line" smooth="yes"/>
      <point x="1073" y="611"/>
      <point x="931" y="515"/>
      <point x="596" y="515" type="curve" smooth="yes"/>
      <point x="427" y="515"/>
      <point x="271" y="542"/>
      <point x="112" y="588" type="curve"/>
      <point x="131" y="404" type="line"/>
      <point x="292" y="367"/>
      <point x="447" y="345"/>
    </contour>
    <contour>
      <point x="848" y="-44" type="line"/>
      <point x="1167" y="-44" type="line"/>
      <point x="949" y="118"/>
      <point x="776" y="226"/>
      <point x="548" y="342" type="curve"/>
      <point x="583" y="426" type="line"/>
      <point x="243" y="397" type="line"/>
    </contour>
  </outline>
</glyph>
<glyph name="three.gm" format="2">
  <advance width="1429"/>
  <unicode hex="0A69"/>
  <outline>
    <contour>
      <point x="713" y="39" type="curve" smooth="yes"/>
      <point x="1122" y="39"/>
      <point x="1319" y="155"/>
      <point x="1319" y="345" type="curve"/>
      <point x="1319" y="359" type="line" smooth="yes"/>
      <point x="1319" y="519"/>
      <point x="1184" y="638"/>
      <point x="897" y="638" type="curve"/>
      <point x="992" y="600" type="line"/>
      <point x="992" y="637" type="line"/>
      <point x="1187" y="647"/>
      <point x="1292" y="741"/>
      <point x="1292" y="881" type="curve" smooth="yes"/>
      <point x="1292" y="896" type="line" smooth="yes"/>
      <point x="1292" y="1091"/>
      <point x="1096" y="1220"/>
      <point x="674" y="1220" type="curve" smooth="yes"/>
      <point x="484" y="1220"/>
      <point x="289" y="1185"/>
      <point x="118" y="1122" type="curve"/>
      <point x="118" y="947" type="line"/>
      <point x="273" y="1005"/>
      <point x="509" y="1048"/>
      <point x="671" y="1048" type="curve" smooth="yes"/>
      <point x="930" y="1048"/>
      <point x="1072" y="990"/>
      <point x="1072" y="876" type="curve" smooth="yes"/>
      <point x="1072" y="868" type="line" smooth="yes"/>
      <point x="1072" y="782"/>
      <point x="1003" y="718"/>
      <point x="811" y="718" type="curve" smooth="yes"/>
      <point x="236" y="718" type="line"/>
      <point x="236" y="548" type="line"/>
      <point x="811" y="548" type="line" smooth="yes"/>
      <point x="1013" y="548"/>
      <point x="1099" y="483"/>
      <point x="1099" y="386" type="curve"/>
      <point x="1099" y="377" type="line" smooth="yes"/>
      <point x="1099" y="272"/>
      <point x="973" y="211"/>
      <point x="690" y="211" type="curve" smooth="yes"/>
      <point x="504" y="211"/>
      <point x="269" y="253"/>
      <point x="100" y="313" type="curve"/>
      <point x="117" y="128" type="line"/>
      <point x="306" y="69"/>
      <point x="545" y="39"/>
    </contour>
    <contour>
      <point x="668" y="-208" type="line"/>
      <point x="1000" y="-208" type="line"/>
      <point x="859" y="-103"/>
      <point x="717" y="-22"/>
      <point x="589" y="39" type="curve"/>
      <point x="620" y="124" type="line"/>
      <point x="249" y="128" type="line"/>
    </contour>
  </outline>
</glyph>
<glyph name="four.gm" format="2">
  <advance width="1506"/>
  <unicode hex="0A6A"/>
  <outline>
    <contour>
      <point x="752" y="-23" type="curve" smooth="yes"/>
      <point x="1131" y="-23"/>
      <point x="1370" y="86"/>
      <point x="1370" y="328" type="curve" smooth="yes"/>
      <point x="1370" y="342" type="line" smooth="yes"/>
      <point x="1370" y="513"/>
      <point x="1234" y="623"/>
      <point x="1006" y="637" type="curve"/>
      <point x="1006" y="641" type="line"/>
      <point x="1263" y="671"/>
      <point x="1391" y="793"/>
      <point x="1391" y="986" type="curve" smooth="yes"/>
      <point x="1391" y="1062"/>
      <point x="1377" y="1129"/>
      <point x="1350" y="1197" type="curve"/>
      <point x="1132" y="1197" type="line"/>
      <point x="1157" y="1134"/>
      <point x="1171" y="1064"/>
      <point x="1171" y="1002" type="curve" smooth="yes"/>
      <point x="1171" y="833"/>
      <point x="1041" y="737"/>
      <point x="753" y="737" type="curve" smooth="yes"/>
      <point x="464" y="737"/>
      <point x="335" y="833"/>
      <point x="335" y="1002" type="curve" smooth="yes"/>
      <point x="335" y="1064"/>
      <point x="349" y="1135"/>
      <point x="374" y="1197" type="curve"/>
      <point x="156" y="1197" type="line"/>
      <point x="129" y="1129"/>
      <point x="115" y="1055"/>
      <point x="115" y="986" type="curve" smooth="yes"/>
      <point x="115" y="792"/>
      <point x="244" y="670"/>
      <point x="492" y="641" type="curve"/>
      <point x="492" y="637" type="line"/>
      <point x="267" y="620"/>
      <point x="133" y="514"/>
      <point x="133" y="340" type="curve" smooth="yes"/>
      <point x="133" y="328" type="line" smooth="yes"/>
      <point x="133" y="86"/>
      <point x="377" y="-23"/>
    </contour>
    <contour>
      <point x="752" y="149" type="curve" smooth="yes"/>
      <point x="503" y="149"/>
      <point x="353" y="221"/>
      <point x="353" y="358" type="curve" smooth="yes"/>
      <point x="353" y="361" type="line" smooth="yes"/>
      <point x="353" y="476"/>
      <point x="446" y="567"/>
      <point x="751" y="566" type="curve" smooth="yes"/>
      <point x="1065" y="565"/>
      <point x="1149" y="476"/>
      <point x="1149" y="361" type="curve" smooth="yes"/>
      <point x="1149" y="357" type="line" smooth="yes"/>
      <point x="1149" y="217"/>
      <point x="1005" y="149"/>
    </contour>
  </outline>
</glyph>
<glyph name="five.gm" format="2">
  <advance width="1525"/>
  <unicode hex="0A6B"/>
  <outline>
    <contour>
      <point x="726" y="185" type="curve" smooth="yes"/>
      <point x="866" y="185"/>
      <point x="1008" y="209"/>
      <point x="1110" y="250" type="curve"/>
      <point x="1161" y="392" type="line"/>
      <point x="1172" y="392" type="line"/>
      <point x="1168" y="453" type="line"/>
      <point x="1070" y="393"/>
      <point x="922" y="357"/>
      <point x="770" y="357" type="curve" smooth="yes"/>
      <point x="592" y="357"/>
      <point x="439" y="409"/>
      <point x="340" y="486" type="curve"/>
      <point x="388" y="643"/>
      <point x="411" y="806"/>
      <point x="411" y="987" type="curve" smooth="yes"/>
      <point x="411" y="1057"/>
      <point x="407" y="1127"/>
      <point x="400" y="1197" type="curve"/>
      <point x="180" y="1197" type="line"/>
      <point x="188" y="1126"/>
      <point x="192" y="1056"/>
      <point x="192" y="988" type="curve" smooth="yes"/>
      <point x="192" y="788"/>
      <point x="168" y="620"/>
      <point x="95" y="424" type="curve"/>
      <point x="239" y="268"/>
      <point x="466" y="185"/>
    </contour>
    <contour>
      <point x="1165" y="0" type="line"/>
      <point x="1375" y="0" type="line"/>
      <point x="1375" y="1197" type="line"/>
      <point x="1165" y="1197" type="line"/>
    </contour>
  </outline>
</glyph>
<glyph name="six.gm" format="2">
  <advance width="1411"/>
  <unicode hex="0A6C"/>
  <outline>
    <contour>
      <point x="762" y="-20" type="curve" smooth="yes"/>
      <point x="939" y="-20"/>
      <point x="1159" y="12"/>
      <point x="1288" y="58" type="curve"/>
      <point x="1304" y="237" type="line"/>
      <point x="1149" y="183"/>
      <point x="952" y="152"/>
      <point x="775" y="152" type="curve" smooth="yes"/>
      <point x="457" y="152"/>
      <point x="331" y="219"/>
      <point x="331" y="331" type="curve" smooth="yes"/>
      <point x="331" y="340" type="line"/>
      <point x="331" y="438"/>
      <point x="415" y="503"/>
      <point x="613" y="503" type="curve" smooth="yes"/>
      <point x="1189" y="503" type="line"/>
      <point x="1189" y="673" type="line"/>
      <point x="613" y="673" type="line" smooth="yes"/>
      <point x="422" y="673"/>
      <point x="352" y="739"/>
      <point x="352" y="828" type="curve" smooth="yes"/>
      <point x="352" y="836" type="line" smooth="yes"/>
      <point x="352" y="949"/>
      <point x="490" y="1007"/>
      <point x="744" y="1007" type="curve" smooth="yes"/>
      <point x="894" y="1007"/>
      <point x="1129" y="971"/>
      <point x="1271" y="923" type="curve"/>
      <point x="1266" y="1091" type="line"/>
      <point x="1120" y="1142"/>
      <point x="938" y="1179"/>
      <point x="740" y="1179" type="curve" smooth="yes"/>
      <point x="325" y="1179"/>
      <point x="132" y="1051"/>
      <point x="132" y="861" type="curve" smooth="yes"/>
      <point x="132" y="847" type="line" smooth="yes"/>
      <point x="132" y="698"/>
      <point x="234" y="600"/>
      <point x="453" y="591" type="curve"/>
      <point x="453" y="557" type="line"/>
      <point x="552" y="591" type="line"/>
      <point x="234" y="591"/>
      <point x="110" y="478"/>
      <point x="110" y="324" type="curve" smooth="yes"/>
      <point x="110" y="310" type="line" smooth="yes"/>
      <point x="110" y="106"/>
      <point x="306" y="-20"/>
    </contour>
    <contour>
      <point x="1299" y="1384" type="curve"/>
      <point x="1283" y="1543" type="line"/>
      <point x="1219" y="1558"/>
      <point x="1149" y="1563"/>
      <point x="1082" y="1563" type="curve" smooth="yes"/>
      <point x="887" y="1563"/>
      <point x="770" y="1484"/>
      <point x="770" y="1357" type="curve" smooth="yes"/>
      <point x="770" y="1255"/>
      <point x="837" y="1197"/>
      <point x="936" y="1171" type="curve"/>
      <point x="936" y="1060" type="line"/>
      <point x="1103" y="1131" type="line"/>
      <point x="1016" y="1166"/>
      <point x="965" y="1217"/>
      <point x="965" y="1286" type="curve" smooth="yes"/>
      <point x="965" y="1355"/>
      <point x="1023" y="1404"/>
      <point x="1134" y="1404" type="curve" smooth="yes"/>
      <point x="1189" y="1404"/>
      <point x="1244" y="1398"/>
    </contour>
  </outline>
</glyph>
<glyph name="seven.gm" format="2">
  <advance width="1501"/>
  <unicode hex="0A6D"/>
  <outline>
    <contour>
      <point x="162" y="0" type="line"/>
      <point x="446" y="0" type="line" smooth="yes"/>
      <point x="1046" y="0"/>
      <point x="1391" y="231"/>
      <point x="1391" y="665" type="curve" smooth="yes"/>
      <point x="1391" y="689" type="line" smooth="yes"/>
      <point x="1391" y="1000"/>
      <point x="1158" y="1218"/>
      <point x="753" y="1218" type="curve" smooth="yes"/>
      <point x="368" y="1218"/>
      <point x="125" y="1019"/>
      <point x="125" y="688" type="curve" smooth="yes"/>
      <point x="125" y="633" type="line"/>
      <point x="342" y="633" type="line"/>
      <point x="342" y="687" type="line" smooth="yes"/>
      <point x="342" y="910"/>
      <point x="506" y="1046"/>
      <point x="753" y="1046" type="curve" smooth="yes"/>
      <point x="1037" y="1046"/>
      <point x="1174" y="901"/>
      <point x="1174" y="684" type="curve" smooth="yes"/>
      <point x="1174" y="666" type="line" smooth="yes"/>
      <point x="1174" y="339"/>
      <point x="904" y="170"/>
      <point x="436" y="170" type="curve" smooth="yes"/>
      <point x="146" y="170" type="line"/>
    </contour>
  </outline>
</glyph>
<glyph name="eight.gm" format="2">
  <advance width="1485"/>
  <unicode hex="0A6E"/>
  <outline>
    <contour>
      <point x="904" y="-27" type="curve" smooth="yes"/>
      <point x="1086" y="-27"/>
      <point x="1264" y="6"/>
      <point x="1384" y="63" type="curve"/>
      <point x="1400" y="247" type="line"/>
      <point x="1265" y="182"/>
      <point x="1091" y="143"/>
      <point x="932" y="143" type="curve" smooth="yes"/>
      <point x="563" y="143"/>
      <point x="360" y="323"/>
      <point x="360" y="651" type="curve" smooth="yes"/>
      <point x="360" y="1206" type="line"/>
      <point x="150" y="1171" type="line"/>
      <point x="150" y="651" type="line" smooth="yes"/>
      <point x="150" y="216"/>
      <point x="420" y="-27"/>
    </contour>
    <contour>
      <point x="260" y="786" type="line"/>
      <point x="1377" y="786" type="line"/>
      <point x="1377" y="956" type="line"/>
      <point x="260" y="956" type="line"/>
    </contour>
  </outline>
</glyph>
<glyph name="nine.gm" format="2">
  <advance width="1485"/>
  <unicode hex="0A6F"/>
  <outline>
    <contour>
      <point x="904" y="-27" type="curve" smooth="yes"/>
      <point x="1086" y="-27"/>
      <point x="1264" y="6"/>
      <point x="1384" y="63" type="curve"/>
      <point x="1400" y="247" type="line"/>
      <point x="1265" y="182"/>
      <point x="1091" y="143"/>
      <point x="932" y="143" type="curve" smooth="yes"/>
      <point x="563" y="143"/>
      <point x="360" y="323"/>
      <point x="360" y="651" type="curve" smooth="yes"/>
      <point x="360" y="1206" type="line"/>
      <point x="150" y="1171" type="line"/>
      <point x="150" y="651" type="line" smooth="yes"/>
      <point x="150" y="216"/>
      <point x="420" y="-27"/>
    </contour>
    <contour>
      <point x="260" y="786" type="line"/>
      <point x="1377" y="786" type="line"/>
      <point x="1377" y="956" type="line"/>
      <point x="260" y="956" type="line"/>
    </contour>
    <contour>
      <point x="1093" y="852" type="line"/>
      <point x="1282" y="941" type="line"/>
      <point x="1177" y="974"/>
      <point x="1106" y="1028"/>
      <point x="1106" y="1111" type="curve" smooth="yes"/>
      <point x="1106" y="1186"/>
      <point x="1167" y="1240"/>
      <point x="1285" y="1240" type="curve" smooth="yes"/>
      <point x="1344" y="1240"/>
      <point x="1399" y="1234"/>
      <point x="1450" y="1223" type="curve"/>
      <point x="1434" y="1379" type="line"/>
      <point x="1373" y="1393"/>
      <point x="1307" y="1399"/>
      <point x="1237" y="1399" type="curve" smooth="yes"/>
      <point x="1026" y="1399"/>
      <point x="911" y="1314"/>
      <point x="911" y="1177" type="curve" smooth="yes"/>
      <point x="911" y="1059"/>
      <point x="995" y="990"/>
      <point x="1093" y="960" type="curve"/>
    </contour>
  </outline>
</glyph>
<glyph name="Tippi.gm" format="2">
  <unicode hex="0A70"/>
  <anchor x="600" y="1200" name="_top"/>
  <outline>
    <contour>
      <point x="57" y="1342" type="curve"/>
      <point x="189" y="1342" type="line"/>
      <point x="172" y="1374"/>
      <point x="162" y="1410"/>
      <point x="162" y="1440" type="curve" smooth="yes"/>
      <point x="162" y="1532"/>
      <point x="220" y="1584"/>
      <point x="323" y="1584" type="curve" smooth="yes"/>
      <point x="426" y="1584"/>
      <point x="483" y="1532"/>
      <point x="483" y="1440" type="curve" smooth="yes"/>
      <point x="483" y="1410"/>
      <point x="473" y="1375"/>
      <point x="456" y="1342" type="curve"/>
      <point x="589" y="1342" type="line"/>
      <point x="624" y="1385"/>
      <point x="650" y="1445"/>
      <point x="651" y="1504" type="curve" smooth="yes"/>
      <point x="651" y="1658"/>
      <point x="528" y="1751"/>
      <point x="323" y="1751" type="curve" smooth="yes"/>
      <point x="121" y="1751"/>
      <point x="-5" y="1658"/>
      <point x="-5" y="1504" type="curve" smooth="yes"/>
      <point x="-5" y="1444"/>
      <point x="21" y="1384"/>
    </contour>
  </outline>
</glyph>
<glyph name="Addak.gm" format="2">
  <unicode hex="0A71"/>
  <anchor x="600" y="1200" name="_top"/>
  <outline>
    <contour>
      <point x="308" y="1370" type="curve" smooth="yes"/>
      <point x="539" y="1370"/>
      <point x="652" y="1484"/>
      <point x="652" y="1731" type="curve"/>
      <point x="512" y="1731" type="line"/>
      <point x="497" y="1614"/>
      <point x="430" y="1542"/>
      <point x="308" y="1542" type="curve" smooth="yes"/>
      <point x="182" y="1542"/>
      <point x="117" y="1614"/>
      <point x="103" y="1731" type="curve"/>
      <point x="-37" y="1731" type="line"/>
      <point x="-35" y="1484"/>
      <point x="76" y="1370"/>
    </contour>
  </outline>
</glyph>
<glyph name="Iri.gm" format="2">
  <advance width="1600"/>
  <unicode hex="0A72"/>
  <anchor x="1583" y="1200" name="top"/>
  <outline>
    <contour>
      <point x="930" y="-31" type="curve" smooth="yes"/>
      <point x="1140" y="-31"/>
      <point x="1319" y="7"/>
      <point x="1444" y="60" type="curve"/>
      <point x="1461" y="241" type="line"/>
      <point x="1317" y="182"/>
      <point x="1134" y="143"/>
      <point x="933" y="143" type="curve" smooth="yes"/>
      <point x="609" y="143"/>
      <point x="373" y="272"/>
      <point x="373" y="449" type="curve" smooth="yes"/>
      <point x="373" y="487" type="line"/>
      <point x="318" y="425" type="line"/>
      <point x="598" y="515"/>
      <point x="989" y="565"/>
      <point x="1399" y="575" type="curve"/>
      <point x="1399" y="1126" type="line"/>
      <point x="1184" y="1126" type="line"/>
      <point x="1184" y="733" type="line"/>
      <point x="1037" y="729"/>
      <point x="890" y="717"/>
      <point x="750" y="698" type="curve"/>
      <point x="721" y="689" type="line"/>
      <point x="509" y="664"/>
      <point x="325" y="624"/>
      <point x="158" y="571" type="curve"/>
      <point x="158" y="490" type="line" smooth="yes"/>
      <point x="158" y="195"/>
      <point x="432" y="-31"/>
    </contour>
    <contour>
      <point x="662" y="672" type="line"/>
      <point x="783" y="676" type="line"/>
      <point x="912" y="716" type="line"/>
      <point x="611" y="716"/>
      <point x="418" y="848"/>
      <point x="418" y="1013" type="curve" smooth="yes"/>
      <point x="418" y="1130" type="line"/>
      <point x="173" y="1130" type="line"/>
      <point x="173" y="1025" type="line" smooth="yes"/>
      <point x="173" y="810"/>
      <point x="360" y="696"/>
      <point x="662" y="686" type="curve"/>
    </contour>
    <contour>
      <point x="40" y="1041" type="line"/>
      <point x="298" y="1041" type="line"/>
      <point x="308" y="1048" type="line"/>
      <point x="1295" y="1048" type="line"/>
      <point x="1306" y="1041" type="line"/>
      <point x="1586" y="1041" type="line"/>
      <point x="1586" y="1197" type="line"/>
      <point x="40" y="1197" type="line"/>
    </contour>
    <component base="_cap.shiro_left"/>
    <component base="_cap.shiro_right" xOffset="1349"/>
  </outline>
</glyph>
<glyph name="Ura.gm" format="2">
  <advance width="1714"/>
  <unicode hex="0A73"/>
  <anchor x="2030" y="1375" name="top1"/>
  <outline>
    <contour>
      <point x="938" y="-32" type="curve" smooth="yes"/>
      <point x="1331" y="-32"/>
      <point x="1522" y="96"/>
      <point x="1522" y="323" type="curve" smooth="yes"/>
      <point x="1522" y="338" type="line" smooth="yes"/>
      <point x="1522" y="526"/>
      <point x="1366" y="632"/>
      <point x="1103" y="632" type="curve"/>
      <point x="1177" y="577" type="line"/>
      <point x="1177" y="633" type="line"/>
      <point x="1417" y="633"/>
      <point x="1586" y="780"/>
      <point x="1586" y="1054" type="curve" smooth="yes"/>
      <point x="1586" y="1110" type="line"/>
      <point x="1375" y="1110" type="line"/>
      <point x="1375" y="1049" type="line" smooth="yes"/>
      <point x="1375" y="840"/>
      <point x="1223" y="715"/>
      <point x="985" y="715" type="curve" smooth="yes"/>
      <point x="277" y="715" type="line"/>
      <point x="277" y="547" type="line"/>
      <point x="983" y="547" type="line" smooth="yes"/>
      <point x="1198" y="547"/>
      <point x="1303" y="466"/>
      <point x="1303" y="352" type="curve" smooth="yes"/>
      <point x="1303" y="351" type="line" smooth="yes"/>
      <point x="1303" y="217"/>
      <point x="1193" y="140"/>
      <point x="929" y="140" type="curve" smooth="yes"/>
      <point x="540" y="140"/>
      <point x="372" y="329"/>
      <point x="372" y="763" type="curve" smooth="yes"/>
      <point x="372" y="972" type="line" smooth="yes"/>
      <point x="372" y="1370"/>
      <point x="569" y="1533"/>
      <point x="901" y="1533" type="curve" smooth="yes"/>
      <point x="1208" y="1533"/>
      <point x="1375" y="1396"/>
      <point x="1386" y="1195" type="curve"/>
      <point x="1387" y="1180" type="line"/>
      <point x="1438" y="1195" type="line"/>
      <point x="1438" y="1201" type="line"/>
      <point x="1590" y="1243" type="line"/>
      <point x="1589" y="1250" type="line"/>
      <point x="1568" y="1503"/>
      <point x="1342" y="1702"/>
      <point x="899" y="1702" type="curve" smooth="yes"/>
      <point x="441" y="1702"/>
      <point x="164" y="1467"/>
      <point x="164" y="968" type="curve" smooth="yes"/>
      <point x="164" y="764" type="line" smooth="yes"/>
      <point x="164" y="231"/>
      <point x="409" y="-32"/>
    </contour>
    <contour>
      <point x="12" y="1041" type="line"/>
      <point x="290" y="1041" type="line"/>
      <point x="300" y="1048" type="line"/>
      <point x="1489" y="1048" type="line"/>
      <point x="1497" y="1041" type="line"/>
      <point x="1707" y="1041" type="line"/>
      <point x="1707" y="1197" type="line"/>
      <point x="12" y="1197" type="line"/>
    </contour>
    <component base="_cap.shiro_left"/>
    <component base="_cap.shiro_right" xOffset="1468"/>
  </outline>
</glyph>
<glyph name="EkOnkar.gm" format="2">
  <advance width="3086"/>
  <unicode hex="0A74"/>
  <outline>
    <contour>
      <point x="2291" y="-32" type="curve" smooth="yes"/>
      <point x="2699" y="-32"/>
      <point x="2875" y="107"/>
      <point x="2875" y="333" type="curve" smooth="yes"/>
      <point x="2875" y="338" type="line" smooth="yes"/>
      <point x="2875" y="521"/>
      <point x="2718" y="630"/>
      <point x="2456" y="630" type="curve"/>
      <point x="2530" y="576" type="line"/>
      <point x="2530" y="631" type="line"/>
      <point x="2770" y="634"/>
      <point x="2939" y="782"/>
      <point x="2939" y="1054" type="curve" smooth="yes"/>
      <point x="2939" y="1105" type="line"/>
      <point x="2726" y="1105" type="line"/>
      <point x="2726" y="1049" type="line" smooth="yes"/>
      <point x="2726" y="830"/>
      <point x="2593" y="716"/>
      <point x="2338" y="716" type="curve" smooth="yes"/>
      <point x="1630" y="716" type="line"/>
      <point x="1630" y="548" type="line"/>
      <point x="2336" y="548" type="line" smooth="yes"/>
      <point x="2549" y="548"/>
      <point x="2654" y="460"/>
      <point x="2654" y="350" type="curve" smooth="yes"/>
      <point x="2654" y="349" type="line" smooth="yes"/>
      <point x="2654" y="229"/>
      <point x="2558" y="140"/>
      <point x="2282" y="140" type="curve" smooth="yes"/>
      <point x="1928" y="140"/>
      <point x="1727" y="296"/>
      <point x="1727" y="764" type="curve" smooth="yes"/>
      <point x="1727" y="939" type="line" smooth="yes"/>
      <point x="1727" y="1368"/>
      <point x="1918" y="1530"/>
      <point x="2334" y="1530" type="curve" smooth="yes"/>
      <point x="2474" y="1530"/>
      <point x="2609" y="1507"/>
      <point x="2727" y="1471" type="curve"/>
      <point x="2714" y="1636" type="line"/>
      <point x="2598" y="1678"/>
      <point x="2451" y="1702"/>
      <point x="2301" y="1702" type="curve" smooth="yes"/>
      <point x="1802" y="1702"/>
      <point x="1517" y="1467"/>
      <point x="1517" y="968" type="curve" smooth="yes"/>
      <point x="1517" y="764" type="line" smooth="yes"/>
      <point x="1517" y="200"/>
      <point x="1794" y="-32"/>
    </contour>
    <contour>
      <point x="1607" y="1041" type="line"/>
      <point x="1668" y="1041" type="line"/>
      <point x="1674" y="1048" type="line"/>
      <point x="2830" y="1048" type="line"/>
      <point x="2837" y="1041" type="line"/>
      <point x="3032" y="1041" type="line"/>
      <point x="3032" y="1197" type="line"/>
      <point x="1610" y="1197" type="line"/>
    </contour>
    <contour>
      <point x="2727" y="1471" type="line"/>
      <point x="2727" y="1504" type="line" smooth="yes"/>
      <point x="2727" y="1745"/>
      <point x="2879" y="1894"/>
      <point x="3173" y="1893" type="curve"/>
      <point x="3253" y="1893"/>
      <point x="3349" y="1880"/>
      <point x="3431" y="1857" type="curve"/>
      <point x="3418" y="2022" type="line"/>
      <point x="3328" y="2049"/>
      <point x="3221" y="2065"/>
      <point x="3130" y="2065" type="curve"/>
      <point x="2777" y="2065"/>
      <point x="2543" y="1885"/>
      <point x="2543" y="1584" type="curve" smooth="yes"/>
      <point x="2543" y="1560" type="line"/>
    </contour>
    <component base="one.gm"/>
    <component base="_cap.shiro_right" xOffset="2835"/>
  </outline>
</glyph>
<glyph name="Yakash.gm" format="2">
  <unicode hex="0A75"/>
  <anchor x="800" y="100" name="_bottom"/>
  <anchor x="600" y="259" name="bottom1"/>
  <outline>
    <contour>
      <point x="691" y="-555" type="curve" smooth="yes"/>
      <point x="954" y="-555"/>
      <point x="1082" y="-436"/>
      <point x="1082" y="-219" type="curve"/>
      <point x="886" y="-219" type="line"/>
      <point x="886" y="-311"/>
      <point x="821" y="-374"/>
      <point x="696" y="-374" type="curve" smooth="yes"/>
      <point x="567" y="-374"/>
      <point x="499" y="-311"/>
      <point x="499" y="-219" type="curve"/>
      <point x="499" y="38" type="line"/>
      <point x="289" y="38" type="line"/>
      <point x="289" y="-219" type="line"/>
      <point x="289" y="-431"/>
      <point x="421" y="-555"/>
    </contour>
  </outline>
</glyph>
<glyph name="Khanda.gm" format="2">
  <advance width="1818"/>
  <unicode hex="262C"/>
  <outline>
    <contour>
      <point x="816" y="-17" type="line"/>
      <point x="999" y="-17" type="line"/>
      <point x="950" y="190" type="line"/>
      <point x="1134" y="42" type="line"/>
      <point x="1252" y="143" type="line"/>
      <point x="992" y="250" type="line"/>
      <point x="1220" y="250"/>
      <point x="1640" y="428"/>
      <point x="1640" y="843" type="curve" smooth="yes"/>
      <point x="1640" y="1064"/>
      <point x="1506" y="1219"/>
      <point x="1324" y="1236" type="curve"/>
      <point x="1383" y="1164"/>
      <point x="1430" y="1060"/>
      <point x="1430" y="899" type="curve" smooth="yes"/>
      <point x="1430" y="501"/>
      <point x="1130" y="357"/>
      <point x="946" y="339" type="curve"/>
      <point x="946" y="405" type="line"/>
      <point x="1067" y="480" type="line"/>
      <point x="1018" y="617"/>
      <point x="994" y="758"/>
      <point x="994" y="899" type="curve" smooth="yes"/>
      <point x="994" y="1049"/>
      <point x="1021" y="1199"/>
      <point x="1076" y="1345" type="curve"/>
      <point x="915" y="1500" type="line"/>
      <point x="750" y="1345" type="line"/>
      <point x="806" y="1198"/>
      <point x="835" y="1047"/>
      <point x="835" y="896" type="curve" smooth="yes"/>
      <point x="835" y="755"/>
      <point x="811" y="615"/>
      <point x="762" y="480" type="curve"/>
      <point x="868" y="410" type="line"/>
      <point x="868" y="339" type="line"/>
      <point x="684" y="357"/>
      <point x="388" y="501"/>
      <point x="388" y="899" type="curve" smooth="yes"/>
      <point x="388" y="1060"/>
      <point x="435" y="1164"/>
      <point x="494" y="1236" type="curve"/>
      <point x="312" y="1219"/>
      <point x="178" y="1064"/>
      <point x="178" y="843" type="curve" smooth="yes"/>
      <point x="178" y="428"/>
      <point x="594" y="250"/>
      <point x="822" y="250" type="curve"/>
      <point x="563" y="143" type="line"/>
      <point x="680" y="42" type="line"/>
      <point x="864" y="190" type="line"/>
    </contour>
    <contour>
      <point x="913" y="542" type="curve" smooth="yes"/>
      <point x="1161" y="542"/>
      <point x="1320" y="684"/>
      <point x="1320" y="916" type="curve" smooth="yes"/>
      <point x="1320" y="1147"/>
      <point x="1161" y="1288"/>
      <point x="913" y="1288" type="curve" smooth="yes"/>
      <point x="663" y="1288"/>
      <point x="505" y="1147"/>
      <point x="505" y="916" type="curve" smooth="yes"/>
      <point x="505" y="684"/>
      <point x="663" y="542"/>
    </contour>
    <contour>
      <point x="913" y="588" type="curve" smooth="yes"/>
      <point x="740" y="588"/>
      <point x="662" y="702"/>
      <point x="662" y="916" type="curve" smooth="yes"/>
      <point x="662" y="1128"/>
      <point x="740" y="1243"/>
      <point x="913" y="1243" type="curve" smooth="yes"/>
      <point x="1085" y="1243"/>
      <point x="1163" y="1128"/>
      <point x="1163" y="916" type="curve" smooth="yes"/>
      <point x="1163" y="702"/>
      <point x="1085" y="588"/>
    </contour>
  </outline>
</glyph>
<glyph name="Addak.gm.alt" format="2">
  <anchor x="600" y="1200" name="_top1"/>
  <outline>
    <contour>
      <point x="230" y="1382" type="curve" smooth="yes"/>
      <point x="410" y="1382"/>
      <point x="493" y="1470"/>
      <point x="499" y="1663" type="curve"/>
      <point x="379" y="1663" type="line"/>
      <point x="369" y="1577"/>
      <point x="320" y="1531"/>
      <point x="232" y="1531" type="curve" smooth="yes"/>
      <point x="142" y="1531"/>
      <point x="94" y="1577"/>
      <point x="84" y="1663" type="curve"/>
      <point x="-37" y="1663" type="line"/>
      <point x="-32" y="1470"/>
      <point x="51" y="1382"/>
    </contour>
  </outline>
</glyph>
<glyph name="AddakBindi.gm.alt" format="2">
  <anchor x="600" y="1200" name="_top1"/>
  <outline>
    <contour>
      <point x="230" y="1382" type="curve" smooth="yes"/>
      <point x="410" y="1382"/>
      <point x="493" y="1470"/>
      <point x="499" y="1663" type="curve"/>
      <point x="384" y="1663" type="line"/>
      <point x="374" y="1577"/>
      <point x="323" y="1531"/>
      <point x="232" y="1531" type="curve" smooth="yes"/>
      <point x="139" y="1531"/>
      <point x="89" y="1577"/>
      <point x="79" y="1663" type="curve"/>
      <point x="-37" y="1663" type="line"/>
      <point x="-32" y="1470"/>
      <point x="51" y="1382"/>
    </contour>
    <contour>
      <point x="229" y="1606" type="curve" smooth="yes"/>
      <point x="285" y="1606"/>
      <point x="308" y="1633"/>
      <point x="308" y="1675" type="curve" smooth="yes"/>
      <point x="308" y="1677" type="line" smooth="yes"/>
      <point x="308" y="1718"/>
      <point x="285" y="1746"/>
      <point x="229" y="1746" type="curve" smooth="yes"/>
      <point x="173" y="1746"/>
      <point x="150" y="1718"/>
      <point x="150" y="1677" type="curve" smooth="yes"/>
      <point x="150" y="1674" type="line" smooth="yes"/>
      <point x="150" y="1633"/>
      <point x="173" y="1606"/>
    </contour>
  </outline>
</glyph>
<glyph name="AddhaMa.gm" format="2">
  <advance width="1489"/>
  <anchor x="1525" y="100" name="bottom1"/>
  <anchor x="1422" y="1200" name="top"/>
  <outline>
    <contour>
      <point x="74" y="421" type="line"/>
      <point x="1161" y="421" type="line"/>
      <point x="1161" y="591" type="line"/>
      <point x="74" y="591" type="line"/>
    </contour>
    <component base="_danda" xOffset="902"/>
  </outline>
</glyph>
<glyph name="AddhaTha.gm" format="2">
  <advance width="1501"/>
  <anchor x="1530" y="100" name="bottom1"/>
  <anchor x="1435" y="1200" name="top"/>
  <outline>
    <contour>
      <point x="620" y="188" type="curve" smooth="yes"/>
      <point x="808" y="188"/>
      <point x="993" y="213"/>
      <point x="1160" y="261" type="curve"/>
      <point x="1160" y="433" type="line"/>
      <point x="993" y="385"/>
      <point x="808" y="360"/>
      <point x="620" y="360" type="curve" smooth="yes"/>
      <point x="439" y="360"/>
      <point x="257" y="385"/>
      <point x="89" y="433" type="curve"/>
      <point x="89" y="261" type="line"/>
      <point x="257" y="213"/>
      <point x="439" y="188"/>
    </contour>
    <contour>
      <point x="16" y="1041" type="line"/>
      <point x="1122" y="1041" type="line"/>
      <point x="1122" y="1197" type="line"/>
      <point x="16" y="1197" type="line"/>
    </contour>
    <component base="_danda" xOffset="914"/>
    <component base="_cap.shiro_left"/>
  </outline>
</glyph>
<glyph name="AddhaYa.gm" format="2">
  <advance width="1711"/>
  <anchor x="1650" y="100" name="bottom1"/>
  <anchor x="1644" y="1200" name="top"/>
  <outline>
    <contour>
      <point x="487" y="138" type="curve" smooth="yes"/>
      <point x="616" y="138"/>
      <point x="741" y="156"/>
      <point x="851" y="191" type="curve"/>
      <point x="851" y="581" type="line"/>
      <point x="1398" y="581" type="line"/>
      <point x="1398" y="751" type="line"/>
      <point x="646" y="751" type="line"/>
      <point x="646" y="301" type="line"/>
      <point x="718" y="342" type="line"/>
      <point x="652" y="321"/>
      <point x="567" y="310"/>
      <point x="471" y="310" type="curve" smooth="yes"/>
      <point x="316" y="310"/>
      <point x="179" y="338"/>
      <point x="68" y="392" type="curve"/>
      <point x="68" y="218" type="line"/>
      <point x="183" y="165"/>
      <point x="326" y="138"/>
    </contour>
    <contour>
      <point x="26" y="1041" type="line"/>
      <point x="1396" y="1041" type="line"/>
      <point x="1396" y="1197" type="line"/>
      <point x="26" y="1197" type="line"/>
    </contour>
    <component base="_danda" xOffset="1124"/>
    <component base="_cap.shiro_left"/>
  </outline>
</glyph>
<glyph name="Bindi.gm.alt" format="2">
  <anchor x="600" y="1200" name="_top1"/>
  <outline>
    <contour>
      <point x="197" y="1416" type="curve" smooth="yes"/>
      <point x="290" y="1416"/>
      <point x="328" y="1461"/>
      <point x="328" y="1531" type="curve" smooth="yes"/>
      <point x="328" y="1534" type="line" smooth="yes"/>
      <point x="328" y="1603"/>
      <point x="289" y="1649"/>
      <point x="197" y="1649" type="curve" smooth="yes"/>
      <point x="103" y="1649"/>
      <point x="64" y="1602"/>
      <point x="64" y="1534" type="curve" smooth="yes"/>
      <point x="64" y="1529" type="line" smooth="yes"/>
      <point x="64" y="1462"/>
      <point x="103" y="1416"/>
    </contour>
  </outline>
</glyph>
<glyph name="KaViramaRa.gm" format="2">
  <advance width="1693"/>
  <anchor x="1529" y="-327" name="bottom"/>
  <anchor x="1652" y="-224" name="bottom1"/>
  <anchor x="1687" y="1200" name="top"/>
  <outline>
    <contour>
      <point x="872" y="-369" type="line"/>
      <point x="1377" y="-369" type="line"/>
      <point x="1509" y="-327" type="line"/>
      <point x="1530" y="-259"/>
      <point x="1535" y="-182"/>
      <point x="1535" y="-114" type="curve"/>
      <point x="1535" y="-72" type="line"/>
      <point x="1535" y="253"/>
      <point x="1395" y="463"/>
      <point x="1259" y="584" type="curve"/>
      <point x="1258" y="589" type="line"/>
      <point x="1106" y="766"/>
      <point x="889" y="865"/>
      <point x="610" y="865" type="curve" smooth="yes"/>
      <point x="286" y="865"/>
      <point x="116" y="738"/>
      <point x="116" y="519" type="curve" smooth="yes"/>
      <point x="116" y="516" type="line" smooth="yes"/>
      <point x="116" y="295"/>
      <point x="298" y="170"/>
      <point x="624" y="170" type="curve" smooth="yes"/>
      <point x="919" y="170"/>
      <point x="1145" y="271"/>
      <point x="1271" y="454" type="curve"/>
      <point x="1273" y="463" type="line"/>
      <point x="1401" y="595"/>
      <point x="1487" y="781"/>
      <point x="1526" y="980" type="curve" smooth="yes"/>
      <point x="1551" y="1109" type="line"/>
      <point x="1325" y="1106" type="line"/>
      <point x="1303" y="986" type="line" smooth="yes"/>
      <point x="1276" y="840"/>
      <point x="1216" y="681"/>
      <point x="1146" y="591" type="curve"/>
      <point x="1143" y="578" type="line"/>
      <point x="1052" y="421"/>
      <point x="853" y="339"/>
      <point x="648" y="339" type="curve" smooth="yes"/>
      <point x="435" y="339"/>
      <point x="333" y="402"/>
      <point x="333" y="515" type="curve" smooth="yes"/>
      <point x="333" y="517" type="line" smooth="yes"/>
      <point x="333" y="628"/>
      <point x="433" y="696"/>
      <point x="648" y="696" type="curve" smooth="yes"/>
      <point x="865" y="696"/>
      <point x="1039" y="601"/>
      <point x="1141" y="463" type="curve"/>
      <point x="1158" y="446" type="line"/>
      <point x="1223" y="364"/>
      <point x="1319" y="170"/>
      <point x="1319" y="-69" type="curve"/>
      <point x="1319" y="-108" type="line"/>
      <point x="1319" y="-155"/>
      <point x="1315" y="-204"/>
      <point x="1307" y="-235" type="curve"/>
      <point x="1344" y="-186" type="line"/>
      <point x="861" y="-186" type="line"/>
    </contour>
    <contour>
      <point x="1912" y="-714" type="curve"/>
      <point x="1881" y="-505" type="line"/>
      <point x="1758" y="-416"/>
      <point x="1551" y="-291"/>
      <point x="1394" y="-206" type="curve"/>
      <point x="1317" y="-347" type="line"/>
      <point x="1503" y="-443"/>
      <point x="1740" y="-591"/>
    </contour>
    <contour>
      <point x="22" y="1040" type="line"/>
      <point x="1707" y="1040" type="line"/>
      <point x="1707" y="1197" type="line"/>
      <point x="22" y="1197" type="line"/>
    </contour>
    <component base="_cap.shiro_left"/>
    <component base="_cap.shiro_right" xOffset="1468"/>
  </outline>
</glyph>
<glyph name="LaHa.gm" format="2">
  <advance width="1870"/>
  <anchor x="1837" y="-532" name="bottom1"/>
  <anchor x="1764" y="1200" name="top"/>
  <outline>
    <contour>
      <point x="938" y="367" type="curve"/>
      <point x="1219" y="504"/>
      <point x="1492" y="758"/>
      <point x="1571" y="1102" type="curve" smooth="yes"/>
      <point x="1580" y="1141" type="line"/>
      <point x="1363" y="1141" type="line"/>
      <point x="1347" y="1087" type="line" smooth="yes"/>
      <point x="1271" y="830"/>
      <point x="1121" y="679"/>
      <point x="938" y="556" type="curve"/>
      <point x="743" y="677"/>
      <point x="598" y="830"/>
      <point x="527" y="1087" type="curve" smooth="yes"/>
      <point x="512" y="1141" type="line"/>
      <point x="294" y="1141" type="line"/>
      <point x="303" y="1102" type="line" smooth="yes"/>
      <point x="382" y="761"/>
      <point x="627" y="504"/>
    </contour>
    <contour>
      <point x="284" y="0" type="curve"/>
      <point x="508" y="0" type="line"/>
      <point x="512" y="12" type="line"/>
      <point x="408" y="104"/>
      <point x="354" y="211"/>
      <point x="354" y="321" type="curve" smooth="yes"/>
      <point x="354" y="329" type="line" smooth="yes"/>
      <point x="354" y="478"/>
      <point x="449" y="586"/>
      <point x="606" y="627" type="curve"/>
      <point x="532" y="791" type="line"/>
      <point x="276" y="729"/>
      <point x="135" y="573"/>
      <point x="135" y="355" type="curve" smooth="yes"/>
      <point x="135" y="350" type="line" smooth="yes"/>
      <point x="135" y="222"/>
      <point x="186" y="98"/>
    </contour>
    <contour>
      <point x="1575" y="0" type="line"/>
      <point x="1684" y="86"/>
      <point x="1733" y="204"/>
      <point x="1733" y="338" type="curve" smooth="yes"/>
      <point x="1733" y="350" type="line" smooth="yes"/>
      <point x="1733" y="573"/>
      <point x="1592" y="729"/>
      <point x="1336" y="791" type="curve"/>
      <point x="1262" y="627" type="line"/>
      <point x="1423" y="585"/>
      <point x="1515" y="477"/>
      <point x="1515" y="329" type="curve" smooth="yes"/>
      <point x="1515" y="321" type="line" smooth="yes"/>
      <point x="1515" y="205"/>
      <point x="1470" y="113"/>
      <point x="1365" y="27" type="curve"/>
      <point x="1365" y="0" type="line"/>
    </contour>
    <contour>
      <point x="24" y="1041" type="line"/>
      <point x="1829" y="1041" type="line"/>
      <point x="1829" y="1197" type="line"/>
      <point x="24" y="1197" type="line"/>
    </contour>
    <contour>
      <point x="1074" y="-735" type="curve" smooth="yes"/>
      <point x="1410" y="-735"/>
      <point x="1575" y="-597"/>
      <point x="1575" y="-366" type="curve" smooth="yes"/>
      <point x="1575" y="0" type="line"/>
      <point x="1365" y="0" type="line"/>
      <point x="1366" y="-365" type="line" smooth="yes"/>
      <point x="1366" y="-497"/>
      <point x="1265" y="-567"/>
      <point x="1070" y="-567" type="curve" smooth="yes"/>
      <point x="881" y="-567"/>
      <point x="753" y="-503"/>
      <point x="753" y="-399" type="curve" smooth="yes"/>
      <point x="753" y="-397" type="line" smooth="yes"/>
      <point x="753" y="-337"/>
      <point x="801" y="-296"/>
      <point x="895" y="-296" type="curve" smooth="yes"/>
      <point x="1157" y="-296" type="line"/>
      <point x="1157" y="-133" type="line"/>
      <point x="879" y="-133" type="line" smooth="yes"/>
      <point x="664" y="-133"/>
      <point x="534" y="-227"/>
      <point x="534" y="-388" type="curve" smooth="yes"/>
      <point x="534" y="-397" type="line" smooth="yes"/>
      <point x="534" y="-586"/>
      <point x="735" y="-735"/>
    </contour>
    <component base="_cap.shiro_left"/>
    <component base="_cap.shiro_right" xOffset="1619"/>
  </outline>
</glyph>
<glyph name="MatraAi.gm.alt" format="2">
  <anchor x="600" y="1200" name="_top"/>
  <anchor x="964" y="1382" name="top1"/>
  <outline>
    <contour>
      <point x="351" y="1179" type="line"/>
      <point x="420" y="1179" type="line"/>
      <point x="413" y="1295" type="line" smooth="yes"/>
      <point x="389" y="1693"/>
      <point x="252" y="1894"/>
      <point x="-170" y="1894" type="curve" smooth="yes"/>
      <point x="-244" y="1894"/>
      <point x="-316" y="1887"/>
      <point x="-420" y="1867" type="curve"/>
      <point x="-428" y="1698" type="line"/>
      <point x="-334" y="1718"/>
      <point x="-238" y="1729"/>
      <point x="-159" y="1729" type="curve" smooth="yes"/>
      <point x="187" y="1729"/>
      <point x="305" y="1584"/>
      <point x="344" y="1317" type="curve"/>
      <point x="334" y="1315" type="line"/>
    </contour>
    <contour>
      <point x="312" y="1179" type="line"/>
      <point x="363" y="1179" type="line"/>
      <point x="359" y="1214" type="line" smooth="yes"/>
      <point x="334" y="1433"/>
      <point x="225" y="1583"/>
      <point x="-109" y="1583" type="curve" smooth="yes"/>
      <point x="-179" y="1583"/>
      <point x="-249" y="1574"/>
      <point x="-324" y="1561" type="curve"/>
      <point x="-332" y="1391" type="line"/>
      <point x="-237" y="1407"/>
      <point x="-166" y="1417"/>
      <point x="-85" y="1417" type="curve" smooth="yes"/>
      <point x="183" y="1417"/>
      <point x="289" y="1322"/>
      <point x="309" y="1198" type="curve" smooth="yes"/>
    </contour>
  </outline>
</glyph>
<glyph name="MatraAu.gm.alt" format="2">
  <anchor x="600" y="1200" name="_top"/>
  <anchor x="1161" y="1460" name="top1"/>
  <outline>
    <contour>
      <point x="58" y="1350" type="curve"/>
      <point x="191" y="1350" type="line"/>
      <point x="175" y="1377"/>
      <point x="166" y="1406"/>
      <point x="166" y="1436" type="curve" smooth="yes"/>
      <point x="166" y="1524"/>
      <point x="234" y="1573"/>
      <point x="322" y="1573" type="curve" smooth="yes"/>
      <point x="416" y="1573"/>
      <point x="478" y="1524"/>
      <point x="478" y="1436" type="curve" smooth="yes"/>
      <point x="478" y="1406"/>
      <point x="469" y="1377"/>
      <point x="453" y="1350" type="curve"/>
      <point x="586" y="1350" type="line"/>
      <point x="623" y="1389"/>
      <point x="643" y="1439"/>
      <point x="643" y="1501" type="curve" smooth="yes"/>
      <point x="643" y="1650"/>
      <point x="522" y="1745"/>
      <point x="319" y="1745" type="curve" smooth="yes"/>
      <point x="243" y="1745"/>
      <point x="173" y="1721"/>
      <point x="125" y="1688" type="curve"/>
      <point x="139" y="1663" type="line"/>
      <point x="52" y="1633"/>
      <point x="1" y="1567"/>
      <point x="1" y="1486" type="curve" smooth="yes"/>
      <point x="1" y="1436"/>
      <point x="21" y="1388"/>
    </contour>
    <contour>
      <point x="-70" y="1585" type="curve" smooth="yes"/>
      <point x="-2" y="1585"/>
      <point x="46" y="1599"/>
      <point x="80" y="1622" type="curve"/>
      <point x="90" y="1614" type="line"/>
      <point x="283" y="1614" type="line"/>
      <point x="319" y="1745" type="line"/>
      <point x="60" y="1745" type="line" smooth="yes"/>
      <point x="-93" y="1745"/>
      <point x="-182" y="1782"/>
      <point x="-201" y="1929" type="curve"/>
      <point x="-319" y="1929" type="line"/>
      <point x="-315" y="1829" type="line" smooth="yes"/>
      <point x="-309" y="1667"/>
      <point x="-217" y="1585"/>
    </contour>
  </outline>
</glyph>
<glyph name="MatraEe.gm.alt" format="2">
  <anchor x="600" y="1200" name="_top"/>
  <anchor x="847" y="1375" name="top1"/>
  <outline>
    <contour>
      <point x="295" y="1174" type="line"/>
      <point x="405" y="1174" type="line"/>
      <point x="354" y="1575"/>
      <point x="175" y="1730"/>
      <point x="-189" y="1730" type="curve"/>
      <point x="-263" y="1730"/>
      <point x="-325" y="1725"/>
      <point x="-394" y="1715" type="curve"/>
      <point x="-411" y="1534" type="line"/>
      <point x="-341" y="1544"/>
      <point x="-249" y="1549"/>
      <point x="-206" y="1549" type="curve"/>
      <point x="143" y="1549"/>
      <point x="249" y="1404"/>
      <point x="293" y="1184" type="curve" smooth="yes"/>
    </contour>
  </outline>
</glyph>
<glyph name="MatraIiBindi.gm" format="2">
  <advance width="615"/>
  <anchor x="970" y="1375" name="top1"/>
  <outline>
    <contour>
      <point x="546" y="1591" type="curve" smooth="yes"/>
      <point x="625" y="1591"/>
      <point x="657" y="1629"/>
      <point x="657" y="1688" type="curve" smooth="yes"/>
      <point x="657" y="1691" type="line" smooth="yes"/>
      <point x="657" y="1749"/>
      <point x="624" y="1788"/>
      <point x="546" y="1788" type="curve" smooth="yes"/>
      <point x="467" y="1788"/>
      <point x="434" y="1748"/>
      <point x="434" y="1691" type="curve" smooth="yes"/>
      <point x="434" y="1687" type="line" smooth="yes"/>
      <point x="434" y="1630"/>
      <point x="467" y="1591"/>
    </contour>
    <component base="MatraIi.gm"/>
  </outline>
</glyph>
<glyph name="MatraOo.gm.alt" format="2">
  <anchor x="600" y="1200" name="_top"/>
  <anchor x="880" y="1373" name="top1"/>
  <outline>
    <contour>
      <point x="299" y="1189" type="curve"/>
      <point x="410" y="1189" type="line"/>
      <point x="413" y="1219"/>
      <point x="415" y="1247"/>
      <point x="415" y="1279" type="curve" smooth="yes"/>
      <point x="415" y="1519"/>
      <point x="300" y="1594"/>
      <point x="52" y="1611" type="curve" smooth="yes"/>
      <point x="-62" y="1617" type="line" smooth="yes"/>
      <point x="-188" y="1627"/>
      <point x="-262" y="1677"/>
      <point x="-268" y="1834" type="curve"/>
      <point x="-396" y="1834" type="line"/>
      <point x="-396" y="1746" type="line" smooth="yes"/>
      <point x="-396" y="1550"/>
      <point x="-299" y="1449"/>
      <point x="-68" y="1434" type="curve" smooth="yes"/>
      <point x="46" y="1428" type="line" smooth="yes"/>
      <point x="218" y="1415"/>
      <point x="291" y="1368"/>
    </contour>
  </outline>
</glyph>
<glyph name="MatraU.gm.alt" format="2">
  <anchor x="600" y="100" name="_bottom1"/>
  <outline>
    <contour>
      <point x="1" y="-1011" type="curve" smooth="yes"/>
      <point x="172" y="-1011"/>
      <point x="325" y="-984"/>
      <point x="444" y="-934" type="curve"/>
      <point x="454" y="-785" type="line"/>
      <point x="336" y="-834"/>
      <point x="171" y="-862"/>
      <point x="8" y="-862" type="curve" smooth="yes"/>
      <point x="-151" y="-862"/>
      <point x="-327" y="-834"/>
      <point x="-450" y="-784" type="curve"/>
      <point x="-440" y="-934" type="line"/>
      <point x="-316" y="-985"/>
      <point x="-153" y="-1011"/>
    </contour>
  </outline>
</glyph>
<glyph name="MatraUu.gm.alt" format="2">
  <anchor x="600" y="100" name="_bottom1"/>
  <outline>
    <contour>
      <point x="-12" y="-1011" type="curve" smooth="yes"/>
      <point x="160" y="-1011"/>
      <point x="312" y="-984"/>
      <point x="432" y="-934" type="curve"/>
      <point x="442" y="-794" type="line"/>
      <point x="324" y="-843"/>
      <point x="159" y="-871"/>
      <point x="-5" y="-871" type="curve" smooth="yes"/>
      <point x="-163" y="-871"/>
      <point x="-339" y="-843"/>
      <point x="-463" y="-793" type="curve"/>
      <point x="-452" y="-934" type="line"/>
      <point x="-329" y="-985"/>
      <point x="-165" y="-1011"/>
    </contour>
    <contour>
      <point x="-14" y="-1266" type="curve" smooth="yes"/>
      <point x="158" y="-1266"/>
      <point x="310" y="-1239"/>
      <point x="430" y="-1189" type="curve"/>
      <point x="440" y="-1049" type="line"/>
      <point x="322" y="-1098"/>
      <point x="157" y="-1126"/>
      <point x="-6" y="-1126" type="curve" smooth="yes"/>
      <point x="-165" y="-1126"/>
      <point x="-341" y="-1098"/>
      <point x="-464" y="-1048" type="curve"/>
      <point x="-454" y="-1189" type="line"/>
      <point x="-330" y="-1240"/>
      <point x="-167" y="-1266"/>
    </contour>
  </outline>
</glyph>
<glyph name="NaHa.gm" format="2">
  <advance width="1646"/>
  <anchor x="1637" y="-532" name="bottom1"/>
  <anchor x="1118" y="1200" name="top"/>
  <outline>
    <contour>
      <point x="283" y="0" type="curve"/>
      <point x="517" y="0" type="line"/>
      <point x="516" y="12" type="line"/>
      <point x="407" y="102"/>
      <point x="351" y="205"/>
      <point x="351" y="314" type="curve" smooth="yes"/>
      <point x="351" y="315" type="line" smooth="yes"/>
      <point x="351" y="492"/>
      <point x="529" y="609"/>
      <point x="831" y="673" type="curve"/>
      <point x="1126" y="609"/>
      <point x="1308" y="492"/>
      <point x="1308" y="315" type="curve" smooth="yes"/>
      <point x="1308" y="314" type="line"/>
      <point x="1308" y="205"/>
      <point x="1273" y="113"/>
      <point x="1165" y="25" type="curve"/>
      <point x="1165" y="0" type="line"/>
      <point x="1375" y="0" type="line"/>
      <point x="1476" y="90"/>
      <point x="1529" y="203"/>
      <point x="1529" y="329" type="curve" smooth="yes"/>
      <point x="1529" y="340" type="line" smooth="yes"/>
      <point x="1529" y="586"/>
      <point x="1290" y="763"/>
      <point x="830" y="847" type="curve"/>
      <point x="365" y="763"/>
      <point x="131" y="586"/>
      <point x="131" y="340" type="curve" smooth="yes"/>
      <point x="131" y="331" type="line" smooth="yes"/>
      <point x="131" y="201"/>
      <point x="183" y="88"/>
    </contour>
    <contour>
      <point x="729" y="737" type="line"/>
      <point x="939" y="737" type="line"/>
      <point x="939" y="1114" type="line"/>
      <point x="729" y="1114" type="line"/>
    </contour>
    <contour>
      <point x="44" y="1041" type="line"/>
      <point x="1609" y="1041" type="line"/>
      <point x="1609" y="1197" type="line"/>
      <point x="44" y="1197" type="line"/>
    </contour>
    <contour>
      <point x="874" y="-735" type="curve" smooth="yes"/>
      <point x="1210" y="-735"/>
      <point x="1375" y="-597"/>
      <point x="1375" y="-366" type="curve" smooth="yes"/>
      <point x="1375" y="0" type="line"/>
      <point x="1165" y="0" type="line"/>
      <point x="1166" y="-365" type="line" smooth="yes"/>
      <point x="1166" y="-497"/>
      <point x="1065" y="-567"/>
      <point x="870" y="-567" type="curve" smooth="yes"/>
      <point x="681" y="-567"/>
      <point x="553" y="-503"/>
      <point x="553" y="-399" type="curve" smooth="yes"/>
      <point x="553" y="-397" type="line" smooth="yes"/>
      <point x="553" y="-337"/>
      <point x="601" y="-296"/>
      <point x="695" y="-296" type="curve" smooth="yes"/>
      <point x="957" y="-296" type="line"/>
      <point x="957" y="-133" type="line"/>
      <point x="679" y="-133" type="line" smooth="yes"/>
      <point x="464" y="-133"/>
      <point x="334" y="-227"/>
      <point x="334" y="-388" type="curve" smooth="yes"/>
      <point x="334" y="-397" type="line" smooth="yes"/>
      <point x="334" y="-586"/>
      <point x="535" y="-735"/>
    </contour>
    <component base="_cap.shiro_left"/>
    <component base="_cap.shiro_right" xOffset="1395"/>
  </outline>
</glyph>
<glyph name="NaViramaRa.gm" format="2">
  <advance width="1646"/>
  <anchor x="1353" y="-342" name="bottom"/>
  <anchor x="1476" y="-239" name="bottom1"/>
  <anchor x="1118" y="1200" name="top"/>
  <outline>
    <contour>
      <point x="283" y="0" type="curve"/>
      <point x="532" y="0" type="line"/>
      <point x="531" y="12" type="line"/>
      <point x="412" y="102"/>
      <point x="351" y="205"/>
      <point x="351" y="314" type="curve" smooth="yes"/>
      <point x="351" y="315" type="line" smooth="yes"/>
      <point x="351" y="492"/>
      <point x="529" y="609"/>
      <point x="831" y="673" type="curve"/>
      <point x="1126" y="609"/>
      <point x="1308" y="492"/>
      <point x="1308" y="315" type="curve" smooth="yes"/>
      <point x="1308" y="314" type="line"/>
      <point x="1308" y="216"/>
      <point x="1261" y="126"/>
      <point x="1165" y="45" type="curve"/>
      <point x="1165" y="0" type="line"/>
      <point x="1375" y="0" type="line"/>
      <point x="1476" y="81"/>
      <point x="1529" y="203"/>
      <point x="1529" y="329" type="curve" smooth="yes"/>
      <point x="1529" y="340" type="line" smooth="yes"/>
      <point x="1529" y="586"/>
      <point x="1290" y="763"/>
      <point x="830" y="847" type="curve"/>
      <point x="365" y="763"/>
      <point x="131" y="586"/>
      <point x="131" y="340" type="curve" smooth="yes"/>
      <point x="131" y="331" type="line" smooth="yes"/>
      <point x="131" y="201"/>
      <point x="183" y="81"/>
    </contour>
    <contour>
      <point x="729" y="737" type="line"/>
      <point x="939" y="737" type="line"/>
      <point x="939" y="1114" type="line"/>
      <point x="729" y="1114" type="line"/>
    </contour>
    <contour>
      <point x="44" y="1041" type="line"/>
      <point x="1609" y="1041" type="line"/>
      <point x="1609" y="1197" type="line"/>
      <point x="44" y="1197" type="line"/>
    </contour>
    <contour>
      <point x="1736" y="-729" type="curve"/>
      <point x="1705" y="-520" type="line"/>
      <point x="1581" y="-435"/>
      <point x="1372" y="-317"/>
      <point x="1213" y="-236" type="curve"/>
      <point x="1136" y="-377" type="line"/>
      <point x="1323" y="-469"/>
      <point x="1563" y="-611"/>
    </contour>
    <contour>
      <point x="697" y="-384" type="line"/>
      <point x="1202" y="-384" type="line"/>
      <point x="1288" y="-314" type="line"/>
      <point x="1345" y="-249"/>
      <point x="1375" y="-170"/>
      <point x="1375" y="-39" type="curve" smooth="yes"/>
      <point x="1375" y="25" type="line"/>
      <point x="1165" y="25" type="line"/>
      <point x="1165" y="-29" type="line" smooth="yes"/>
      <point x="1165" y="-122"/>
      <point x="1153" y="-189"/>
      <point x="1133" y="-240" type="curve"/>
      <point x="1169" y="-201" type="line"/>
      <point x="686" y="-201" type="line"/>
    </contour>
    <component base="_cap.shiro_left"/>
    <component base="_cap.shiro_right" xOffset="1395"/>
  </outline>
</glyph>
<glyph name="Nukta.gm.001" format="2">
  <outline>
    <contour>
      <point x="-913" y="-246" type="curve" smooth="yes"/>
      <point x="-830" y="-246"/>
      <point x="-787" y="-203"/>
      <point x="-787" y="-132" type="curve" smooth="yes"/>
      <point x="-787" y="-128" type="line" smooth="yes"/>
      <point x="-787" y="-59"/>
      <point x="-830" y="-15"/>
      <point x="-913" y="-15" type="curve" smooth="yes"/>
      <point x="-994" y="-15"/>
      <point x="-1038" y="-59"/>
      <point x="-1038" y="-128" type="curve" smooth="yes"/>
      <point x="-1038" y="-132" type="line" smooth="yes"/>
      <point x="-1038" y="-203"/>
      <point x="-994" y="-246"/>
    </contour>
  </outline>
</glyph>
<glyph name="PairinHa.gm" format="2">
  <anchor x="800" y="100" name="_bottom"/>
  <anchor x="600" y="89" name="bottom1"/>
  <outline>
    <contour>
      <point x="-2" y="-735" type="curve" smooth="yes"/>
      <point x="334" y="-735"/>
      <point x="499" y="-597"/>
      <point x="499" y="-366" type="curve" smooth="yes"/>
      <point x="499" y="87" type="line"/>
      <point x="289" y="87" type="line"/>
      <point x="290" y="-365" type="line" smooth="yes"/>
      <point x="290" y="-497"/>
      <point x="189" y="-567"/>
      <point x="-6" y="-567" type="curve" smooth="yes"/>
      <point x="-195" y="-567"/>
      <point x="-323" y="-503"/>
      <point x="-323" y="-399" type="curve" smooth="yes"/>
      <point x="-323" y="-397" type="line" smooth="yes"/>
      <point x="-323" y="-337"/>
      <point x="-275" y="-296"/>
      <point x="-181" y="-296" type="curve" smooth="yes"/>
      <point x="81" y="-296" type="line"/>
      <point x="81" y="-133" type="line"/>
      <point x="-197" y="-133" type="line" smooth="yes"/>
      <point x="-412" y="-133"/>
      <point x="-542" y="-227"/>
      <point x="-542" y="-388" type="curve" smooth="yes"/>
      <point x="-542" y="-397" type="line" smooth="yes"/>
      <point x="-542" y="-586"/>
      <point x="-341" y="-735"/>
    </contour>
  </outline>
</glyph>
<glyph name="PairinRa.gm" format="2">
  <anchor x="800" y="100" name="_bottom"/>
  <anchor x="600" y="389" name="bottom1"/>
  <outline>
    <contour>
      <point x="860" y="-729" type="curve"/>
      <point x="829" y="-520" type="line"/>
      <point x="705" y="-435"/>
      <point x="496" y="-317"/>
      <point x="337" y="-236" type="curve"/>
      <point x="260" y="-377" type="line"/>
      <point x="447" y="-469"/>
      <point x="687" y="-611"/>
    </contour>
    <contour>
      <point x="-179" y="-384" type="line"/>
      <point x="326" y="-384" type="line"/>
      <point x="412" y="-314" type="line"/>
      <point x="469" y="-249"/>
      <point x="499" y="-170"/>
      <point x="499" y="-39" type="curve" smooth="yes"/>
      <point x="499" y="25" type="line"/>
      <point x="289" y="25" type="line"/>
      <point x="289" y="-29" type="line" smooth="yes"/>
      <point x="289" y="-122"/>
      <point x="277" y="-189"/>
      <point x="257" y="-240" type="curve"/>
      <point x="293" y="-201" type="line"/>
      <point x="-190" y="-201" type="line"/>
    </contour>
  </outline>
</glyph>
<glyph name="PairinVa.gm" format="2">
  <anchor x="800" y="100" name="_bottom"/>
  <anchor x="600" y="89" name="bottom1"/>
  <outline>
    <contour>
      <point x="-167" y="-469" type="curve"/>
      <point x="463" y="-469" type="line"/>
      <point x="463" y="-337" type="line"/>
      <point x="-137" y="-337" type="line" smooth="yes"/>
      <point x="-199" y="-337"/>
      <point x="-231" y="-316"/>
      <point x="-231" y="-279" type="curve" smooth="yes"/>
      <point x="-231" y="-243"/>
      <point x="-197" y="-221"/>
      <point x="-137" y="-221" type="curve" smooth="yes"/>
      <point x="499" y="-221" type="line"/>
      <point x="499" y="87" type="line"/>
      <point x="289" y="87" type="line"/>
      <point x="289" y="-89" type="line"/>
      <point x="-178" y="-89" type="line" smooth="yes"/>
      <point x="-332" y="-89"/>
      <point x="-416" y="-154"/>
      <point x="-416" y="-279" type="curve" smooth="yes"/>
      <point x="-416" y="-400"/>
      <point x="-332" y="-469"/>
    </contour>
    <contour>
      <point x="327" y="-746" type="curve" smooth="yes"/>
      <point x="394" y="-746"/>
      <point x="446" y="-738"/>
      <point x="502" y="-722" type="curve"/>
      <point x="515" y="-591" type="line"/>
      <point x="452" y="-608"/>
      <point x="388" y="-614"/>
      <point x="337" y="-614" type="curve" smooth="yes"/>
      <point x="186" y="-614"/>
      <point x="73" y="-572"/>
      <point x="43" y="-425" type="curve"/>
      <point x="-140" y="-425" type="line"/>
      <point x="-76" y="-670"/>
      <point x="96" y="-746"/>
    </contour>
  </outline>
</glyph>
<glyph name="Rha.gm" format="2">
  <advance width="1503"/>
  <anchor x="1156" y="-223" name="bottom"/>
  <anchor x="1612" y="-262" name="bottom1"/>
  <anchor x="1473" y="1200" name="top"/>
  <outline>
    <contour>
      <point x="16" y="1041" type="line"/>
      <point x="1495" y="1041" type="line"/>
      <point x="1487" y="1197" type="line"/>
      <point x="16" y="1197" type="line"/>
    </contour>
    <contour>
      <point x="438" y="-211" type="line"/>
      <point x="691" y="-211" type="line"/>
      <point x="321" y="139" type="line"/>
      <point x="101" y="146" type="line"/>
    </contour>
    <contour>
      <point x="1193" y="-453" type="curve" smooth="yes"/>
      <point x="1405" y="-453"/>
      <point x="1527" y="-363"/>
      <point x="1527" y="-205" type="curve" smooth="yes"/>
      <point x="1527" y="-157"/>
      <point x="1508" y="-92"/>
      <point x="1447" y="-17" type="curve" smooth="yes"/>
      <point x="1252" y="221" type="line"/>
      <point x="1117" y="119" type="line"/>
      <point x="1293" y="-89" type="line" smooth="yes"/>
      <point x="1326" y="-128"/>
      <point x="1345" y="-164"/>
      <point x="1345" y="-205" type="curve" smooth="yes"/>
      <point x="1345" y="-275"/>
      <point x="1279" y="-309"/>
      <point x="1189" y="-309" type="curve" smooth="yes"/>
      <point x="1093" y="-309"/>
      <point x="1001" y="-272"/>
      <point x="1001" y="-203" type="curve"/>
      <point x="1001" y="-155"/>
      <point x="1053" y="-131"/>
      <point x="1130" y="-128" type="curve"/>
      <point x="1047" y="-13" type="line"/>
      <point x="900" y="-19"/>
      <point x="814" y="-93"/>
      <point x="814" y="-203" type="curve"/>
      <point x="814" y="-349"/>
      <point x="973" y="-453"/>
    </contour>
    <contour>
      <point x="705" y="26" type="curve" smooth="yes"/>
      <point x="1159" y="26"/>
      <point x="1378" y="139"/>
      <point x="1378" y="360" type="curve" smooth="yes"/>
      <point x="1378" y="366" type="line" smooth="yes"/>
      <point x="1378" y="542"/>
      <point x="1235" y="656"/>
      <point x="1008" y="671" type="curve"/>
      <point x="1039" y="639" type="line"/>
      <point x="1039" y="671" type="line"/>
      <point x="1235" y="690"/>
      <point x="1355" y="804"/>
      <point x="1355" y="1036" type="curve" smooth="yes"/>
      <point x="1355" y="1085" type="line"/>
      <point x="1131" y="1085" type="line"/>
      <point x="1131" y="1046" type="line" smooth="yes"/>
      <point x="1131" y="857"/>
      <point x="1032" y="737"/>
      <point x="834" y="737" type="curve" smooth="yes"/>
      <point x="204" y="737" type="line"/>
      <point x="204" y="579" type="line"/>
      <point x="836" y="579" type="line" smooth="yes"/>
      <point x="1066" y="579"/>
      <point x="1159" y="493"/>
      <point x="1159" y="386" type="curve" smooth="yes"/>
      <point x="1159" y="384" type="line" smooth="yes"/>
      <point x="1159" y="247"/>
      <point x="1017" y="194"/>
      <point x="681" y="194" type="curve" smooth="yes"/>
      <point x="452" y="194"/>
      <point x="224" y="237"/>
      <point x="85" y="300" type="curve"/>
      <point x="101" y="146" type="line"/>
      <point x="230" y="84"/>
      <point x="438" y="26"/>
    </contour>
    <component base="_cap.shiro_left"/>
    <component base="_cap.shiro_right" xOffset="1273"/>
  </outline>
</glyph>
<glyph name="TippiDist.gm" format="2">
  <anchor x="550" y="1200" name="_top"/>
  <outline>
    <contour>
      <point x="20" y="1342" type="curve"/>
      <point x="152" y="1342" type="line"/>
      <point x="135" y="1374"/>
      <point x="125" y="1410"/>
      <point x="125" y="1440" type="curve" smooth="yes"/>
      <point x="125" y="1532"/>
      <point x="183" y="1584"/>
      <point x="286" y="1584" type="curve" smooth="yes"/>
      <point x="389" y="1584"/>
      <point x="446" y="1532"/>
      <point x="446" y="1440" type="curve" smooth="yes"/>
      <point x="446" y="1410"/>
      <point x="436" y="1375"/>
      <point x="419" y="1342" type="curve"/>
      <point x="552" y="1342" type="line"/>
      <point x="587" y="1385"/>
      <point x="613" y="1445"/>
      <point x="614" y="1504" type="curve" smooth="yes"/>
      <point x="614" y="1658"/>
      <point x="491" y="1751"/>
      <point x="286" y="1751" type="curve" smooth="yes"/>
      <point x="84" y="1751"/>
      <point x="-42" y="1658"/>
      <point x="-42" y="1504" type="curve" smooth="yes"/>
      <point x="-42" y="1444"/>
      <point x="-16" y="1384"/>
    </contour>
  </outline>
</glyph>
<glyph name="Virama.gm.alt" format="2">
  <anchor x="800" y="100" name="_bottom1"/>
  <outline>
    <contour>
      <point x="449" y="-1187" type="line"/>
      <point x="624" y="-1177" type="line"/>
      <point x="393" y="-846" type="line"/>
      <point x="196" y="-856" type="line"/>
    </contour>
  </outline>
</glyph>
<glyph name="_EEmatra" format="2">
  <advance width="615"/>
  <anchor x="970" y="1375" name="top1"/>
  <outline>
    <contour>
      <point x="205" y="1169" type="line"/>
      <point x="412" y="1169" type="line"/>
      <point x="412" y="1299" type="line" smooth="yes"/>
      <point x="412" y="1573"/>
      <point x="267" y="1719"/>
      <point x="-9" y="1719" type="curve" smooth="yes"/>
      <point x="-273" y="1719"/>
      <point x="-420" y="1575"/>
      <point x="-420" y="1315" type="curve" smooth="yes"/>
      <point x="-420" y="1306" type="line"/>
      <point x="-210" y="1306" type="line"/>
      <point x="-210" y="1315" type="line" smooth="yes"/>
      <point x="-210" y="1466"/>
      <point x="-135" y="1550"/>
      <point x="-7" y="1550" type="curve" smooth="yes"/>
      <point x="131" y="1550"/>
      <point x="205" y="1467"/>
      <point x="205" y="1299" type="curve" smooth="yes"/>
    </contour>
    <contour>
      <point x="202" y="0" type="line"/>
      <point x="412" y="0" type="line"/>
      <point x="412" y="1069" type="line"/>
      <point x="202" y="1069" type="line"/>
    </contour>
    <contour>
      <point x="-105" y="1041" type="line"/>
      <point x="627" y="1041" type="line"/>
      <point x="647" y="1197" type="line"/>
      <point x="-88" y="1197" type="line"/>
    </contour>
  </outline>
</glyph>
<glyph name="_Ematra" format="2">
  <advance width="614"/>
  <outline>
    <contour>
      <point x="202" y="1169" type="line"/>
      <point x="409" y="1169" type="line"/>
      <point x="409" y="1299" type="line" smooth="yes"/>
      <point x="409" y="1467"/>
      <point x="483" y="1550"/>
      <point x="621" y="1550" type="curve" smooth="yes"/>
      <point x="749" y="1550"/>
      <point x="822" y="1466"/>
      <point x="824" y="1315" type="curve" smooth="yes"/>
      <point x="824" y="1306" type="line"/>
      <point x="1033" y="1306" type="line"/>
      <point x="1033" y="1315" type="line" smooth="yes"/>
      <point x="1033" y="1575"/>
      <point x="887" y="1719"/>
      <point x="622" y="1719" type="curve" smooth="yes"/>
      <point x="347" y="1719"/>
      <point x="202" y="1573"/>
      <point x="202" y="1299" type="curve" smooth="yes"/>
    </contour>
    <contour>
      <point x="202" y="0" type="line"/>
      <point x="412" y="0" type="line"/>
      <point x="412" y="1075" type="line"/>
      <point x="202" y="1075" type="line"/>
    </contour>
    <contour>
      <point x="-33" y="1041" type="line"/>
      <point x="716" y="1041" type="line"/>
      <point x="733" y="1197" type="line"/>
      <point x="-16" y="1197" type="line"/>
    </contour>
  </outline>
</glyph>
<glyph name="_cap.shiro_left" format="2">
  <advance width="251"/>
  <outline>
    <contour>
      <point x="-33" y="1041" type="line"/>
      <point x="91" y="1041" type="line"/>
      <point x="91" y="1197" type="line"/>
      <point x="-16" y="1197" type="line"/>
    </contour>
  </outline>
</glyph>
<glyph name="_danda" format="2">
  <advance width="588"/>
  <outline>
    <contour>
      <point x="176" y="0" type="line"/>
      <point x="386" y="0" type="line"/>
      <point x="386" y="1041" type="line"/>
      <point x="564" y="1041" type="line"/>
      <point x="564" y="1197" type="line"/>
      <point x="176" y="1197" type="line"/>
    </contour>
    <component base="_cap.shiro_right" xOffset="339"/>
  </outline>
</glyph>
<glyph name="_danda001" format="2">
  <advance width="614"/>
  <outline>
    <contour>
      <point x="202" y="453" type="line"/>
      <point x="412" y="453" type="line"/>
      <point x="412" y="1113" type="line"/>
      <point x="202" y="1113" type="line"/>
    </contour>
    <contour>
      <point x="-33" y="1041" type="line"/>
      <point x="629" y="1041" type="line"/>
      <point x="647" y="1197" type="line"/>
      <point x="-16" y="1197" type="line"/>
    </contour>
  </outline>
</glyph>
